<svg version="1.1" xmlns="http://www.w3.org/2000/svg" viewBox="0 0 171.17183665407217 156.64760213792297" width="171.17183665407217" height="156.64760213792297" class="excalidraw-svg"><!-- svg-source:excalidraw --><metadata></metadata><defs><style class="style-fonts">
      </style></defs><g stroke-linecap="round" transform="translate(30.813866955157664 15.309500045994284) rotate(0 41.16566021085145 38.71532922832921)"><path d="M82.33 38.72 C82.33 40.55, 82.19 42.41, 81.91 44.23 C81.63 46.04, 81.21 47.86, 80.66 49.62 C80.11 51.38, 79.42 53.13, 78.61 54.8 C77.8 56.47, 76.85 58.1, 75.8 59.65 C74.74 61.19, 73.56 62.68, 72.28 64.07 C71 65.46, 69.6 66.77, 68.12 67.97 C66.65 69.18, 65.06 70.29, 63.42 71.28 C61.78 72.28, 60.04 73.17, 58.27 73.93 C56.49 74.69, 54.64 75.34, 52.76 75.86 C50.89 76.38, 48.96 76.78, 47.02 77.04 C45.09 77.3, 43.12 77.43, 41.17 77.43 C39.21 77.43, 37.24 77.3, 35.31 77.04 C33.37 76.78, 31.44 76.38, 29.57 75.86 C27.69 75.34, 25.84 74.69, 24.06 73.93 C22.29 73.17, 20.55 72.28, 18.91 71.28 C17.27 70.29, 15.68 69.18, 14.21 67.97 C12.73 66.77, 11.33 65.46, 10.05 64.07 C8.78 62.68, 7.59 61.19, 6.53 59.65 C5.48 58.1, 4.53 56.47, 3.72 54.8 C2.91 53.13, 2.22 51.38, 1.67 49.62 C1.12 47.86, 0.7 46.04, 0.42 44.23 C0.14 42.41, 0 40.55, 0 38.72 C0 36.88, 0.14 35.02, 0.42 33.21 C0.7 31.39, 1.12 29.57, 1.67 27.81 C2.22 26.05, 2.91 24.3, 3.72 22.63 C4.53 20.96, 5.48 19.33, 6.53 17.78 C7.59 16.24, 8.78 14.75, 10.05 13.36 C11.33 11.97, 12.73 10.66, 14.21 9.46 C15.68 8.25, 17.27 7.14, 18.91 6.15 C20.55 5.15, 22.29 4.26, 24.06 3.5 C25.84 2.74, 27.69 2.09, 29.57 1.57 C31.44 1.05, 33.37 0.66, 35.31 0.39 C37.24 0.13, 39.21 0, 41.17 0 C43.12 0, 45.09 0.13, 47.02 0.39 C48.96 0.66, 50.89 1.05, 52.76 1.57 C54.64 2.09, 56.49 2.74, 58.27 3.5 C60.04 4.26, 61.78 5.15, 63.42 6.15 C65.06 7.14, 66.65 8.25, 68.12 9.46 C69.6 10.66, 71 11.97, 72.28 13.36 C73.56 14.75, 74.74 16.24, 75.8 17.78 C76.85 19.33, 77.8 20.96, 78.61 22.63 C79.42 24.3, 80.11 26.05, 80.66 27.81 C81.21 29.57, 81.63 31.39, 81.91 33.21 C82.19 35.02, 82.26 37.8, 82.33 38.72 C82.4 39.63, 82.4 37.8, 82.33 38.72" stroke="#000000" stroke-width="1" fill="none"></path></g><g stroke-linecap="round"><g transform="translate(93.54248966444051 89.47304221725211) rotate(0 3.9205420350952416 3.430475838590832)"><path d="M0 0 C1.31 1.14, 6.53 5.72, 7.84 6.86 M0 0 C1.31 1.14, 6.53 5.72, 7.84 6.86" stroke="#000000" stroke-width="1" fill="none"></path></g></g><mask></mask><g stroke-linecap="round"><g transform="translate(103.99725180728908 78.36485432471876) rotate(0 4.900674428104253 4.4106082315997455)"><path d="M0 0 C1.63 1.47, 8.17 7.35, 9.8 8.82 M0 0 C1.63 1.47, 8.17 7.35, 9.8 8.82" stroke="#000000" stroke-width="1" fill="none"></path></g></g><mask></mask><g stroke-linecap="round"><g transform="translate(97.13631259316632 103.84837132130842) rotate(0 11.108200355593318 -10.944847033935064)"><path d="M0 0 C3.7 -3.65, 18.51 -18.24, 22.22 -21.89 M0 0 C3.7 -3.65, 18.51 -18.24, 22.22 -21.89" stroke="#000000" stroke-width="1" fill="none"></path></g></g><mask></mask><g stroke-linecap="round"><g transform="translate(96.8096059498526 102.5415198219218) rotate(0 22.21638824812714 21.889681604810633)"><path d="M0 0 C7.41 7.3, 37.03 36.48, 44.43 43.78 M0 0 C7.41 7.3, 37.03 36.48, 44.43 43.78" stroke="#000000" stroke-width="1" fill="none"></path></g></g><mask></mask><g stroke-linecap="round"><g transform="translate(118.69927509159801 81.63197061011948) rotate(0 21.23625585511813 21.889681604810633)"><path d="M0 0 C7.08 7.3, 35.39 36.48, 42.47 43.78 M0 0 C7.08 7.3, 35.39 36.48, 42.47 43.78" stroke="#000000" stroke-width="1" fill="none"></path></g></g><mask></mask><g stroke-linecap="round"><g transform="translate(141.2423824461007 146.64760213792295) rotate(0 9.964727103985737 -10.128074194114333)"><path d="M0 0 C2.45 -1.03, 11.38 -2.83, 14.7 -6.21 C18.02 -9.58, 19.06 -17.91, 19.93 -20.26 M0 0 C2.45 -1.03, 11.38 -2.83, 14.7 -6.21 C18.02 -9.58, 19.06 -17.91, 19.93 -20.26" stroke="#000000" stroke-width="1" fill="none"></path></g></g><mask></mask><g stroke-linecap="round" transform="translate(10 35.18315400298415) rotate(0 25.90165193788852 32.74086189843972)"><path d="M0 0 L51.8 0 L51.8 65.48 L0 65.48" stroke="none" stroke-width="0" fill="#ffffff"></path><path d="M0 0 C16.62 0, 33.24 0, 51.8 0 M0 0 C13.92 0, 27.84 0, 51.8 0 M51.8 0 C51.8 17.51, 51.8 35.03, 51.8 65.48 M51.8 0 C51.8 23.9, 51.8 47.81, 51.8 65.48 M51.8 65.48 C31.87 65.48, 11.95 65.48, 0 65.48 M51.8 65.48 C41.4 65.48, 31 65.48, 0 65.48 M0 65.48 C0 43.64, 0 21.8, 0 0 M0 65.48 C0 44.9, 0 24.32, 0 0" stroke="#ffffff" stroke-width="1" fill="none"></path></g><g stroke-linecap="round" transform="translate(43.0146036067219 35.32365130035415) rotate(0 4.900674428104249 4.900674428104203)"><path d="M9.8 4.9 C9.8 5.18, 9.78 5.47, 9.73 5.75 C9.68 6.03, 9.6 6.31, 9.51 6.58 C9.41 6.84, 9.29 7.11, 9.14 7.35 C9 7.6, 8.84 7.83, 8.65 8.05 C8.47 8.27, 8.27 8.47, 8.05 8.65 C7.83 8.84, 7.6 9, 7.35 9.14 C7.11 9.29, 6.84 9.41, 6.58 9.51 C6.31 9.6, 6.03 9.68, 5.75 9.73 C5.47 9.78, 5.18 9.8, 4.9 9.8 C4.62 9.8, 4.33 9.78, 4.05 9.73 C3.77 9.68, 3.49 9.6, 3.22 9.51 C2.96 9.41, 2.7 9.29, 2.45 9.14 C2.2 9, 1.97 8.84, 1.75 8.65 C1.53 8.47, 1.33 8.27, 1.15 8.05 C0.96 7.83, 0.8 7.6, 0.66 7.35 C0.51 7.11, 0.39 6.84, 0.3 6.58 C0.2 6.31, 0.12 6.03, 0.07 5.75 C0.03 5.47, 0 5.18, 0 4.9 C0 4.62, 0.03 4.33, 0.07 4.05 C0.12 3.77, 0.2 3.49, 0.3 3.22 C0.39 2.96, 0.51 2.7, 0.66 2.45 C0.8 2.2, 0.96 1.97, 1.15 1.75 C1.33 1.53, 1.53 1.33, 1.75 1.15 C1.97 0.96, 2.2 0.8, 2.45 0.66 C2.7 0.51, 2.96 0.39, 3.22 0.3 C3.49 0.2, 3.77 0.12, 4.05 0.07 C4.33 0.03, 4.62 0, 4.9 0 C5.18 0, 5.47 0.03, 5.75 0.07 C6.03 0.12, 6.31 0.2, 6.58 0.3 C6.84 0.39, 7.11 0.51, 7.35 0.66 C7.6 0.8, 7.83 0.96, 8.05 1.15 C8.27 1.33, 8.47 1.53, 8.65 1.75 C8.84 1.97, 9 2.2, 9.14 2.45 C9.29 2.7, 9.41 2.96, 9.51 3.22 C9.6 3.49, 9.68 3.77, 9.73 4.05 C9.78 4.33, 9.79 4.76, 9.8 4.9 C9.81 5.04, 9.81 4.76, 9.8 4.9" stroke="#000000" stroke-width="1" fill="none"></path></g><g stroke-linecap="round" transform="translate(64.41421278350239 48.80051844069939) rotate(0 4.900674428104249 4.900674428104202)"><path d="M9.8 4.9 C9.8 5.18, 9.78 5.47, 9.73 5.75 C9.68 6.03, 9.6 6.31, 9.51 6.58 C9.41 6.84, 9.29 7.11, 9.14 7.35 C9 7.6, 8.84 7.83, 8.65 8.05 C8.47 8.27, 8.27 8.47, 8.05 8.65 C7.83 8.84, 7.6 9, 7.35 9.14 C7.11 9.29, 6.84 9.41, 6.58 9.51 C6.31 9.6, 6.03 9.68, 5.75 9.73 C5.47 9.78, 5.18 9.8, 4.9 9.8 C4.62 9.8, 4.33 9.78, 4.05 9.73 C3.77 9.68, 3.49 9.6, 3.22 9.51 C2.96 9.41, 2.7 9.29, 2.45 9.14 C2.2 9, 1.97 8.84, 1.75 8.65 C1.53 8.47, 1.33 8.27, 1.15 8.05 C0.96 7.83, 0.8 7.6, 0.66 7.35 C0.51 7.11, 0.39 6.84, 0.3 6.58 C0.2 6.31, 0.12 6.03, 0.07 5.75 C0.03 5.47, 0 5.18, 0 4.9 C0 4.62, 0.03 4.33, 0.07 4.05 C0.12 3.77, 0.2 3.49, 0.3 3.22 C0.39 2.96, 0.51 2.7, 0.66 2.45 C0.8 2.2, 0.96 1.97, 1.15 1.75 C1.33 1.53, 1.53 1.33, 1.75 1.15 C1.97 0.96, 2.2 0.8, 2.45 0.66 C2.7 0.51, 2.96 0.39, 3.22 0.3 C3.49 0.2, 3.77 0.12, 4.05 0.07 C4.33 0.03, 4.62 0, 4.9 0 C5.18 0, 5.47 0.03, 5.75 0.07 C6.03 0.12, 6.31 0.2, 6.58 0.3 C6.84 0.39, 7.11 0.51, 7.35 0.66 C7.6 0.8, 7.83 0.96, 8.05 1.15 C8.27 1.33, 8.47 1.53, 8.65 1.75 C8.84 1.97, 9 2.2, 9.14 2.45 C9.29 2.7, 9.41 2.96, 9.51 3.22 C9.6 3.49, 9.68 3.77, 9.73 4.05 C9.78 4.33, 9.79 4.76, 9.8 4.9 C9.81 5.04, 9.81 4.76, 9.8 4.9" stroke="#000000" stroke-width="1" fill="none"></path></g><g stroke-linecap="round"><g transform="translate(52.489245819617906 42.51130338932498) rotate(0 6.207519695959414 4.410614463129493)"><path d="M0 0 C3.43 2.44, 6.86 4.87, 12.42 8.82 M0 0 C3.83 2.72, 7.66 5.45, 12.42 8.82" stroke="#000000" stroke-width="1" fill="none"></path></g></g><mask></mask><g stroke-linecap="round"><g transform="translate(43.34132271310053 42.83801626416738) rotate(0 -11.59826655209782 9.311282659703902)"><path d="M0 0 C-4.93 3.95, -9.85 7.91, -23.2 18.62 M0 0 C-7.67 6.16, -15.35 12.32, -23.2 18.62" stroke="#000000" stroke-width="1" fill="none"></path></g></g><mask></mask><g stroke-linecap="round" transform="translate(21.059141643629893 72.53198279725893) rotate(0 0.7275745238224953 5.820601741532659)"><path d="M0 0 L1.46 0 L1.46 11.64 L0 11.64" stroke="none" stroke-width="0" fill="#000000"></path><path d="M0 0 C0.51 0, 1.03 0, 1.46 0 M0 0 C0.57 0, 1.14 0, 1.46 0 M1.46 0 C1.46 3.51, 1.46 7.01, 1.46 11.64 M1.46 0 C1.46 2.34, 1.46 4.68, 1.46 11.64 M1.46 11.64 C0.99 11.64, 0.53 11.64, 0 11.64 M1.46 11.64 C0.88 11.64, 0.3 11.64, 0 11.64 M0 11.64 C0 9.01, 0 6.39, 0 0 M0 11.64 C0 8.82, 0 6, 0 0" stroke="#000000" stroke-width="1" fill="none"></path></g><g stroke-linecap="round" transform="translate(29.935537511972875 66.85691039296819) rotate(0 0.5820562884861591 8.43986891710284)"><path d="M0 0 L1.16 0 L1.16 16.88 L0 16.88" stroke="none" stroke-width="0" fill="#000000"></path><path d="M0 0 C0.45 0, 0.89 0, 1.16 0 M0 0 C0.23 0, 0.47 0, 1.16 0 M1.16 0 C1.16 5.75, 1.16 11.51, 1.16 16.88 M1.16 0 C1.16 3.82, 1.16 7.63, 1.16 16.88 M1.16 16.88 C0.74 16.88, 0.32 16.88, 0 16.88 M1.16 16.88 C0.82 16.88, 0.48 16.88, 0 16.88 M0 16.88 C0 13.46, 0 10.05, 0 0 M0 16.88 C0 11.63, 0 6.38, 0 0" stroke="#000000" stroke-width="1" fill="none"></path></g><g stroke-linecap="round" transform="translate(39.10299205480495 58.6353271552962) rotate(0 0.5820562884861586 12.805316060037555)"><path d="M0 0 L1.16 0 L1.16 25.61 L0 25.61" stroke="none" stroke-width="0" fill="#000000"></path><path d="M0 0 C0.31 0, 0.62 0, 1.16 0 M0 0 C0.42 0, 0.85 0, 1.16 0 M1.16 0 C1.16 9.85, 1.16 19.7, 1.16 25.61 M1.16 0 C1.16 5.14, 1.16 10.28, 1.16 25.61 M1.16 25.61 C0.78 25.61, 0.39 25.61, 0 25.61 M1.16 25.61 C0.8 25.61, 0.43 25.61, 0 25.61 M0 25.61 C0 16.08, 0 6.55, 0 0 M0 25.61 C0 17.49, 0 9.36, 0 0" stroke="#000000" stroke-width="1" fill="none"></path></g><g stroke-linecap="round" transform="translate(48.27042439382733 65.69278671409063) rotate(0 0.7275689728694326 9.167443440925286)"><path d="M0 0 L1.46 0 L1.46 18.33 L0 18.33" stroke="none" stroke-width="0" fill="#000000"></path><path d="M0 0 C0.49 0, 0.98 0, 1.46 0 M0 0 C0.35 0, 0.7 0, 1.46 0 M1.46 0 C1.46 5.24, 1.46 10.47, 1.46 18.33 M1.46 0 C1.46 3.71, 1.46 7.43, 1.46 18.33 M1.46 18.33 C1.11 18.33, 0.76 18.33, 0 18.33 M1.46 18.33 C0.93 18.33, 0.4 18.33, 0 18.33 M0 18.33 C0 13.72, 0 9.11, 0 0 M0 18.33 C0 14.49, 0 10.65, 0 0" stroke="#000000" stroke-width="1" fill="none"></path></g><g stroke-linecap="round" transform="translate(57.00131867969451 72.53198279725893) rotate(0 0.5820618394393051 5.675083506196323)"><path d="M0 0 L1.16 0 L1.16 11.35 L0 11.35" stroke="none" stroke-width="0" fill="#000000"></path><path d="M0 0 C0.33 0, 0.66 0, 1.16 0 M0 0 C0.34 0, 0.69 0, 1.16 0 M1.16 0 C1.16 4.44, 1.16 8.87, 1.16 11.35 M1.16 0 C1.16 3.81, 1.16 7.61, 1.16 11.35 M1.16 11.35 C0.9 11.35, 0.64 11.35, 0 11.35 M1.16 11.35 C0.71 11.35, 0.25 11.35, 0 11.35 M0 11.35 C0 8.85, 0 6.36, 0 0 M0 11.35 C0 8.01, 0 4.68, 0 0" stroke="#000000" stroke-width="1" fill="none"></path></g><g stroke-linecap="round" transform="translate(74.09931998951728 62.927990201277346) rotate(0 0.5820618394393051 10.47707980418692)"><path d="M0 0 L1.16 0 L1.16 20.95 L0 20.95" stroke="none" stroke-width="0" fill="#000000"></path><path d="M0 0 C0.29 0, 0.58 0, 1.16 0 M0 0 C0.42 0, 0.85 0, 1.16 0 M1.16 0 C1.16 6.96, 1.16 13.92, 1.16 20.95 M1.16 0 C1.16 6.04, 1.16 12.08, 1.16 20.95 M1.16 20.95 C0.87 20.95, 0.57 20.95, 0 20.95 M1.16 20.95 C0.87 20.95, 0.57 20.95, 0 20.95 M0 20.95 C0 14.45, 0 7.95, 0 0 M0 20.95 C0 12.72, 0 4.48, 0 0" stroke="#000000" stroke-width="1" fill="none"></path></g><g stroke-linecap="round" transform="translate(83.63055069235801 56.088788567155675) rotate(0 0.7275745238225788 13.678414370149365)"><path d="M0 0 L1.46 0 L1.46 27.36 L0 27.36" stroke="none" stroke-width="0" fill="#000000"></path><path d="M0 0 C0.31 0, 0.63 0, 1.46 0 M0 0 C0.31 0, 0.63 0, 1.46 0 M1.46 0 C1.46 8.67, 1.46 17.33, 1.46 27.36 M1.46 0 C1.46 10.84, 1.46 21.67, 1.46 27.36 M1.46 27.36 C1.02 27.36, 0.59 27.36, 0 27.36 M1.46 27.36 C1.08 27.36, 0.7 27.36, 0 27.36 M0 27.36 C0 19.17, 0 10.98, 0 0 M0 27.36 C0 18.98, 0 10.61, 0 0" stroke="#000000" stroke-width="1" fill="none"></path></g><g stroke-linecap="round" transform="translate(65.95047644118782 67.51171747269528) rotate(0 0.7275745238225788 8.148849099289421)"><path d="M0 0 L1.46 0 L1.46 16.3 L0 16.3" stroke="none" stroke-width="0" fill="#000000"></path><path d="M0 0 C0.44 0, 0.88 0, 1.46 0 M0 0 C0.29 0, 0.58 0, 1.46 0 M1.46 0 C1.46 5.18, 1.46 10.35, 1.46 16.3 M1.46 0 C1.46 6.48, 1.46 12.95, 1.46 16.3 M1.46 16.3 C1.13 16.3, 0.8 16.3, 0 16.3 M1.46 16.3 C1.1 16.3, 0.75 16.3, 0 16.3 M0 16.3 C0 11.43, 0 6.57, 0 0 M0 16.3 C0 10.3, 0 4.31, 0 0" stroke="#000000" stroke-width="1" fill="none"></path></g><g stroke-linecap="round"><g transform="translate(73.44450735884439 50.70475818448823) rotate(0 8.43986891710291 -8.730894285869375)"><path d="M0 0 C5.75 -5.95, 11.51 -11.9, 16.88 -17.46 M0 0 C3.82 -3.95, 7.63 -7.9, 16.88 -17.46" stroke="#000000" stroke-width="1" fill="none"></path></g><g transform="translate(73.44450735884439 50.70475818448823) rotate(0 8.43986891710291 -8.730894285869375)"><path d="M11.93 -6.37 C13.62 -10.15, 15.31 -13.93, 16.88 -17.46 M11.93 -6.37 C13.05 -8.88, 14.17 -11.39, 16.88 -17.46" stroke="#000000" stroke-width="1" fill="none"></path></g><g transform="translate(73.44450735884439 50.70475818448823) rotate(0 8.43986891710291 -8.730894285869375)"><path d="M5.96 -12.14 C9.68 -13.96, 13.41 -15.77, 16.88 -17.46 M5.96 -12.14 C8.43 -13.35, 10.9 -14.55, 16.88 -17.46" stroke="#000000" stroke-width="1" fill="none"></path></g></g><mask></mask><g stroke-opacity="0.1" fill-opacity="0.1" transform="translate(39.97610146682419 30.954148506467703) rotate(0 38.41593707820653 22.8458411582155)" stroke="none"><path fill="#0b7285" d="M -2.13,-1.06 Q -2.13,-1.06 -1.76,-1.92 -1.39,-2.78 -0.67,-4.35 0.03,-5.92 1.89,-7.81 3.75,-9.71 4.69,-10.52 5.63,-11.34 6.73,-12.21 7.84,-13.07 9.28,-14.06 10.72,-15.06 12.22,-15.99 13.73,-16.93 15.64,-17.86 17.55,-18.79 18.75,-19.43 19.95,-20.08 21.23,-20.59 22.51,-21.10 23.61,-21.49 24.72,-21.89 25.95,-22.39 27.17,-22.89 28.01,-23.12 28.85,-23.35 29.18,-23.42 29.51,-23.49 29.84,-23.48 30.18,-23.47 30.51,-23.38 30.83,-23.29 31.12,-23.13 31.42,-22.96 31.66,-22.73 31.91,-22.50 32.09,-22.21 32.27,-21.93 32.38,-21.61 32.49,-21.29 32.52,-20.96 32.55,-20.62 32.50,-20.29 32.45,-19.96 32.32,-19.64 32.19,-19.33 31.99,-19.06 31.79,-18.79 31.53,-18.57 31.27,-18.36 30.97,-18.21 30.67,-18.06 28.38,-14.27 26.10,-10.47 24.59,-8.50 23.08,-6.53 21.81,-4.79 20.54,-3.06 19.52,-1.43 18.50,0.19 18.08,1.37 17.67,2.54 16.90,1.52 16.13,0.50 19.12,-1.02 22.10,-2.56 24.50,-3.53 26.90,-4.50 29.13,-5.61 31.36,-6.72 32.59,-7.52 33.81,-8.32 34.64,-9.06 35.46,-9.79 37.06,-11.21 38.66,-12.63 39.99,-13.30 41.31,-13.96 42.38,-14.47 43.44,-14.98 44.66,-15.31 45.88,-15.63 47.80,-13.77 49.72,-11.91 48.97,-10.53 48.23,-9.15 47.05,-8.31 45.87,-7.47 44.30,-6.53 42.74,-5.58 40.99,-4.64 39.25,-3.70 37.37,-2.53 35.49,-1.35 34.05,-0.21 32.62,0.92 31.19,1.98 29.76,3.04 28.26,4.23 26.77,5.42 25.58,6.54 24.40,7.65 22.93,8.99 21.47,10.33 20.41,11.50 19.35,12.67 18.75,13.56 18.15,14.45 17.74,15.73 17.34,17.01 17.31,18.17 17.27,19.33 17.17,19.59 17.07,19.85 16.91,20.08 16.75,20.31 16.53,20.49 16.32,20.67 16.07,20.80 15.83,20.93 15.55,20.99 15.28,21.06 15.00,21.05 14.72,21.05 14.45,20.98 14.18,20.91 13.94,20.78 13.69,20.64 13.48,20.45 13.28,20.27 13.12,20.03 12.97,19.80 12.87,19.54 12.77,19.28 12.74,19.00 12.71,18.72 12.75,18.45 12.79,18.17 13.88,17.14 14.96,16.10 18.97,13.90 22.98,11.70 27.75,9.15 32.52,6.59 36.48,4.37 40.44,2.15 44.21,-0.09 47.99,-2.34 50.75,-4.19 53.51,-6.03 55.39,-7.24 57.26,-8.44 58.35,-9.24 59.44,-10.03 60.40,-10.85 61.36,-11.66 62.40,-12.04 63.45,-12.41 64.82,-12.54 66.19,-12.67 67.30,-12.64 68.41,-12.61 68.70,-12.59 69.00,-12.56 69.29,-12.46 69.57,-12.37 69.83,-12.20 70.08,-12.04 70.28,-11.82 70.49,-11.60 70.64,-11.34 70.79,-11.08 70.87,-10.79 70.95,-10.50 70.96,-10.20 70.97,-9.90 70.91,-9.61 70.85,-9.31 70.71,-9.04 70.58,-8.77 70.39,-8.54 70.20,-8.31 69.96,-8.13 69.72,-7.95 69.44,-7.84 69.16,-7.72 68.87,-7.68 68.57,-7.63 67.24,-6.04 65.92,-4.46 63.40,-2.74 60.88,-1.03 58.55,0.56 56.22,2.17 53.79,3.84 51.35,5.51 49.68,6.83 48.02,8.16 45.07,10.34 42.13,12.51 40.69,13.70 39.24,14.89 37.37,16.51 35.49,18.13 33.82,19.51 32.16,20.88 30.39,22.52 28.62,24.15 27.16,25.89 25.70,27.62 25.02,28.93 24.34,30.25 24.91,28.93 25.49,27.60 28.51,26.39 31.53,25.18 35.67,23.59 39.82,21.99 43.45,20.29 47.09,18.58 50.93,16.77 54.77,14.97 57.45,13.49 60.14,12.00 62.08,10.66 64.02,9.32 65.82,8.20 67.63,7.09 69.10,6.04 70.56,4.99 71.63,4.52 72.70,4.05 72.95,3.98 73.20,3.91 73.46,3.90 73.72,3.89 73.97,3.95 74.22,4.00 74.46,4.11 74.69,4.23 74.89,4.39 75.09,4.56 75.24,4.77 75.40,4.98 75.50,5.22 75.60,5.46 75.64,5.72 75.67,5.97 75.65,6.23 75.63,6.49 75.54,6.74 75.46,6.98 75.32,7.20 75.17,7.42 74.99,7.60 74.80,7.77 74.57,7.90 74.34,8.03 72.51,9.74 70.68,11.46 67.95,13.19 65.22,14.92 63.37,16.04 61.52,17.17 58.94,18.64 56.36,20.12 54.30,21.45 52.23,22.79 49.48,24.53 46.73,26.28 44.02,28.32 41.30,30.35 39.73,31.58 38.15,32.81 36.65,33.96 35.15,35.10 33.54,36.51 31.93,37.91 30.20,39.37 28.47,40.82 26.83,42.26 25.18,43.70 24.20,45.09 23.21,46.48 22.73,47.69 22.25,48.90 21.99,50.66 21.74,52.42 23.75,51.03 25.77,49.64 29.47,48.38 33.17,47.12 36.20,46.11 39.22,45.09 42.63,43.62 46.04,42.15 48.05,41.05 50.05,39.96 51.72,38.85 53.38,37.73 55.17,36.36 56.96,35.00 57.92,34.13 58.89,33.26 60.50,32.34 62.10,31.41 64.24,30.13 66.37,28.85 67.71,28.02 69.05,27.20 71.95,25.90 74.86,24.61 76.08,24.03 77.29,23.44 78.63,23.26 79.98,23.08 80.62,24.51 81.26,25.94 80.04,27.68 78.82,29.42 77.13,30.52 75.45,31.62 71.85,33.85 68.25,36.07 66.15,37.46 64.06,38.85 61.87,40.27 59.68,41.69 56.12,44.50 52.55,47.31 50.55,49.14 48.54,50.97 46.22,52.94 43.90,54.92 42.74,56.06 41.58,57.20 40.24,58.44 38.90,59.68 38.03,60.88 37.15,62.09 38.66,61.39 40.17,60.69 42.43,60.29 44.70,59.89 47.38,59.11 50.05,58.33 53.38,57.11 56.70,55.89 59.76,54.88 62.82,53.87 65.38,52.73 67.95,51.60 70.23,50.53 72.52,49.47 73.61,48.82 74.70,48.17 75.69,47.66 76.69,47.14 77.28,46.62 77.88,46.11 78.12,46.02 78.36,45.93 78.62,45.90 78.87,45.88 79.13,45.91 79.38,45.95 79.62,46.04 79.86,46.14 80.07,46.28 80.28,46.43 80.44,46.63 80.61,46.82 80.73,47.05 80.84,47.28 80.90,47.53 80.96,47.78 80.95,48.04 80.95,48.30 80.89,48.54 80.82,48.79 80.70,49.02 80.57,49.24 80.40,49.43 80.23,49.62 80.01,49.77 79.80,49.91 78.40,51.31 77.00,52.71 74.77,53.92 72.54,55.13 70.75,56.06 68.96,56.99 67.51,57.89 66.06,58.79 64.53,59.57 62.99,60.36 61.61,61.04 60.23,61.73 58.61,62.42 57.00,63.12 54.50,64.01 52.00,64.89 50.46,65.51 48.92,66.12 47.10,66.63 45.29,67.15 43.92,67.52 42.55,67.89 40.72,68.11 38.89,68.33 36.47,68.33 34.06,68.33 32.90,68.46 31.75,68.58 29.89,68.51 28.04,68.44 26.87,67.50 25.71,66.57 24.16,64.61 22.61,62.65 22.04,61.75 21.47,60.84 20.42,58.46 19.38,56.08 18.51,53.07 17.65,50.05 17.16,47.54 16.67,45.03 16.41,42.30 16.15,39.58 15.82,36.80 15.50,34.02 15.30,31.64 15.09,29.25 14.82,27.87 14.54,26.48 14.31,24.53 14.08,22.58 13.64,20.94 13.20,19.30 12.93,17.80 12.65,16.30 12.41,15.22 12.17,14.15 11.74,12.51 11.31,10.87 12.50,10.79 13.69,10.71 13.44,11.79 13.19,12.86 13.12,14.84 13.04,16.81 13.44,18.55 13.85,20.28 14.83,22.77 15.81,25.25 16.46,27.11 17.10,28.97 17.54,30.75 17.98,32.54 18.22,33.64 18.46,34.75 18.59,35.81 18.73,36.88 18.41,38.38 18.09,39.88 17.70,40.97 17.30,42.06 16.42,43.77 15.53,45.47 13.42,46.22 11.30,46.97 10.26,46.36 9.21,45.75 8.61,39.79 8.01,33.84 7.98,30.32 7.94,26.79 7.98,24.37 8.01,21.94 8.07,19.23 8.13,16.51 8.18,14.19 8.23,11.87 8.17,10.30 8.10,8.73 8.03,8.31 7.96,7.89 7.99,7.66 8.02,7.43 8.10,7.21 8.18,7.00 8.31,6.80 8.44,6.61 8.62,6.46 8.79,6.30 9.00,6.19 9.20,6.08 9.43,6.03 9.65,5.97 9.89,5.97 10.12,5.97 10.35,6.02 10.57,6.08 10.78,6.18 10.99,6.29 11.16,6.45 11.33,6.60 11.47,6.79 11.60,6.98 11.68,7.20 11.77,7.42 11.80,7.65 11.83,7.88 11.33,11.50 10.84,15.13 10.51,17.58 10.19,20.04 10.04,22.15 9.88,24.25 9.85,26.15 9.81,28.05 10.08,30.77 10.35,33.49 10.62,35.59 10.89,37.69 11.14,38.94 11.38,40.19 11.40,41.83 11.41,43.47 10.56,44.42 9.70,45.38 8.41,46.09 7.12,46.81 5.20,47.41 3.27,48.01 2.09,48.34 0.90,48.67 -0.36,48.39 -1.62,48.11 -2.56,47.14 -3.50,46.17 -3.91,44.69 -4.31,43.21 -4.00,41.14 -3.69,39.07 -2.93,35.51 -2.16,31.96 -1.71,29.65 -1.26,27.34 -1.04,22.69 -0.82,18.04 -0.70,15.85 -0.57,13.67 -0.63,12.32 -0.69,10.98 -0.79,10.12 -0.90,9.27 -0.86,9.03 -0.83,8.78 -0.74,8.55 -0.64,8.32 -0.50,8.12 -0.35,7.92 -0.17,7.75 0.01,7.59 0.23,7.48 0.46,7.37 0.70,7.31 0.94,7.26 1.19,7.26 1.44,7.27 1.67,7.33 1.91,7.40 2.13,7.51 2.35,7.63 2.53,7.80 2.72,7.97 2.85,8.17 2.99,8.38 3.07,8.61 3.16,8.85 3.18,9.09 3.21,9.34 2.65,10.85 2.09,12.36 1.58,13.44 1.07,14.51 0.91,16.47 0.75,18.43 0.38,20.48 0.00,22.54 -0.29,25.19 -0.60,27.84 -0.77,30.71 -0.94,33.58 -1.01,35.56 -1.08,37.53 -0.87,38.85 -0.65,40.16 0.45,41.14 1.55,42.12 1.87,43.17 2.19,44.22 3.21,45.12 4.22,46.02 5.53,46.83 6.84,47.64 8.08,48.96 9.32,50.28 10.75,51.01 12.17,51.74 13.26,52.40 14.34,53.05 15.50,53.57 16.66,54.08 19.74,54.84 22.83,55.59 23.24,55.89 23.66,56.20 23.95,56.62 24.25,57.04 24.39,57.53 24.54,58.03 24.52,58.54 24.50,59.05 24.32,59.53 24.13,60.01 23.81,60.41 23.48,60.81 23.04,61.08 22.61,61.35 22.11,61.47 21.61,61.59 21.10,61.54 20.58,61.49 20.11,61.28 19.65,61.07 19.27,60.73 18.89,60.38 18.64,59.93 18.39,59.48 18.30,58.97 18.21,58.47 18.29,57.96 18.36,57.45 18.60,56.99 18.83,56.54 19.20,56.18 19.56,55.82 20.03,55.59 20.49,55.37 21.00,55.31 21.51,55.24 22.01,55.35 22.52,55.45 22.96,55.71 23.40,55.97 23.74,56.35 24.08,56.74 24.28,57.21 24.48,57.69 24.51,58.20 24.55,58.71 24.42,59.21 24.29,59.71 24.01,60.14 23.72,60.57 23.32,60.88 22.92,61.20 22.43,61.37 21.95,61.54 21.43,61.55 20.92,61.56 20.43,61.40 19.94,61.25 19.94,61.25 19.94,61.25 18.32,60.93 16.71,60.61 15.04,60.10 13.38,59.59 12.24,58.92 11.10,58.26 10.15,57.52 9.19,56.78 8.20,56.16 7.21,55.54 5.99,54.17 4.78,52.79 3.53,51.94 2.27,51.09 1.45,50.41 0.63,49.73 -0.67,48.46 -1.98,47.20 -2.65,45.56 -3.31,43.92 -3.88,42.25 -4.45,40.57 -4.54,39.03 -4.63,37.48 -4.64,35.48 -4.64,33.48 -4.66,30.53 -4.68,27.57 -4.63,24.80 -4.57,22.03 -4.50,19.99 -4.42,17.94 -4.10,15.77 -3.79,13.59 -3.20,12.40 -2.62,11.21 -1.76,10.24 -0.90,9.27 -0.86,9.03 -0.83,8.78 -0.74,8.55 -0.64,8.32 -0.50,8.12 -0.35,7.92 -0.17,7.75 0.01,7.59 0.23,7.48 0.46,7.37 0.70,7.31 0.94,7.26 1.19,7.26 1.43,7.27 1.67,7.33 1.91,7.40 2.13,7.51 2.35,7.63 2.53,7.80 2.72,7.97 2.85,8.17 2.99,8.38 3.07,8.61 3.16,8.85 3.18,9.09 3.21,9.34 3.08,10.19 2.94,11.05 2.83,12.40 2.72,13.76 2.72,15.95 2.72,18.15 2.64,23.03 2.57,27.90 2.34,30.30 2.10,32.69 1.64,36.26 1.18,39.82 1.54,41.88 1.91,43.95 3.50,43.37 5.09,42.79 6.56,41.67 8.02,40.54 8.01,39.32 8.00,38.10 7.66,35.96 7.33,33.82 6.97,30.90 6.62,27.97 6.68,26.03 6.74,24.09 6.80,21.89 6.87,19.69 7.07,17.14 7.27,14.59 7.62,11.24 7.96,7.89 7.99,7.66 8.02,7.43 8.10,7.21 8.18,7.00 8.31,6.80 8.44,6.61 8.62,6.46 8.79,6.30 9.00,6.19 9.20,6.08 9.43,6.03 9.65,5.97 9.89,5.97 10.12,5.97 10.35,6.02 10.57,6.08 10.78,6.18 10.98,6.29 11.16,6.45 11.33,6.60 11.47,6.79 11.60,6.98 11.68,7.20 11.77,7.42 11.80,7.65 11.83,7.88 11.76,8.29 11.70,8.71 11.65,10.28 11.59,11.85 11.67,14.16 11.76,16.47 11.88,19.13 12.01,21.80 12.21,24.17 12.42,26.54 12.77,29.97 13.13,33.39 13.45,37.89 13.77,42.39 12.40,42.24 11.03,42.09 11.68,41.09 12.33,40.08 12.99,38.63 13.64,37.18 13.52,35.44 13.39,33.71 13.01,32.29 12.62,30.86 11.73,29.10 10.84,27.33 10.15,25.86 9.46,24.39 8.71,22.11 7.96,19.84 7.69,18.28 7.41,16.71 7.41,15.16 7.40,13.61 7.82,11.67 8.23,9.73 8.86,8.47 9.50,7.22 10.54,6.47 11.59,5.73 13.29,6.26 15.00,6.80 15.45,8.38 15.90,9.96 16.07,11.75 16.24,13.55 16.33,14.67 16.41,15.80 16.51,17.12 16.61,18.45 17.05,20.30 17.49,22.14 17.75,24.08 18.02,26.01 18.13,27.47 18.23,28.92 18.53,31.24 18.82,33.56 19.28,36.34 19.74,39.12 20.14,41.60 20.54,44.09 21.22,46.35 21.89,48.61 22.97,51.31 24.05,54.00 24.82,55.54 25.59,57.07 26.27,58.48 26.95,59.89 28.16,61.48 29.37,63.06 30.49,63.83 31.62,64.59 32.77,64.64 33.92,64.69 36.17,64.51 38.41,64.33 40.04,64.14 41.68,63.94 42.96,63.72 44.25,63.50 45.91,63.02 47.58,62.55 49.11,62.01 50.64,61.47 53.01,60.43 55.37,59.39 56.94,58.70 58.50,58.02 59.87,57.42 61.25,56.82 62.65,56.16 64.05,55.50 65.58,54.58 67.10,53.65 68.77,52.66 70.44,51.67 72.41,50.33 74.39,48.98 76.13,47.54 77.88,46.11 78.12,46.02 78.36,45.93 78.62,45.90 78.87,45.88 79.13,45.91 79.38,45.95 79.62,46.04 79.86,46.14 80.07,46.28 80.28,46.43 80.44,46.63 80.61,46.82 80.73,47.05 80.84,47.28 80.90,47.53 80.96,47.78 80.95,48.04 80.95,48.30 80.89,48.54 80.82,48.79 80.70,49.02 80.57,49.24 80.40,49.43 80.23,49.62 80.01,49.77 79.80,49.91 79.58,50.06 79.35,50.21 77.76,50.72 76.17,51.23 74.99,51.68 73.80,52.13 71.52,53.26 69.23,54.39 66.56,55.66 63.89,56.93 60.93,58.03 57.97,59.13 54.61,60.53 51.25,61.93 48.43,62.96 45.62,64.00 42.84,64.73 40.06,65.46 37.43,65.09 34.80,64.72 34.10,63.87 33.39,63.03 33.63,61.36 33.87,59.70 35.28,58.45 36.69,57.20 38.06,56.01 39.44,54.81 40.72,53.77 42.00,52.73 44.25,50.75 46.49,48.77 48.54,46.82 50.58,44.86 54.19,41.90 57.80,38.94 59.88,37.43 61.97,35.92 64.02,34.35 66.08,32.77 69.49,30.39 72.90,28.00 74.32,26.92 75.73,25.83 76.84,25.12 77.94,24.40 78.29,25.63 78.64,26.85 77.45,27.22 76.26,27.59 73.51,28.94 70.77,30.29 69.44,30.95 68.11,31.61 65.94,33.04 63.77,34.47 62.33,35.20 60.89,35.94 59.81,36.61 58.74,37.28 56.90,38.74 55.06,40.20 53.31,41.41 51.55,42.62 49.46,43.84 47.36,45.07 43.87,46.69 40.38,48.31 37.42,49.46 34.45,50.61 30.75,52.07 27.04,53.54 22.60,54.13 18.15,54.72 17.80,53.65 17.44,52.59 17.84,51.22 18.23,49.85 18.73,48.62 19.22,47.40 20.02,46.03 20.83,44.66 22.07,43.14 23.32,41.62 24.97,40.14 26.61,38.66 28.29,37.19 29.97,35.72 31.65,34.17 33.34,32.63 34.85,31.57 36.37,30.50 37.97,29.29 39.57,28.07 42.34,25.93 45.12,23.79 47.82,22.01 50.51,20.23 52.60,18.78 54.69,17.32 57.14,15.79 59.60,14.25 61.34,13.01 63.08,11.77 65.64,9.90 68.20,8.03 69.98,7.02 71.77,6.01 72.23,5.03 72.70,4.05 72.95,3.98 73.20,3.91 73.46,3.90 73.72,3.89 73.97,3.95 74.22,4.00 74.46,4.11 74.69,4.23 74.89,4.39 75.09,4.56 75.24,4.77 75.40,4.98 75.50,5.22 75.60,5.46 75.64,5.72 75.67,5.97 75.65,6.23 75.63,6.49 75.54,6.74 75.46,6.98 75.32,7.20 75.17,7.42 74.99,7.60 74.80,7.77 74.57,7.90 74.34,8.03 73.33,8.17 72.32,8.31 70.74,8.93 69.16,9.54 67.44,10.63 65.71,11.71 63.68,13.19 61.65,14.66 58.91,16.26 56.17,17.86 52.39,19.76 48.60,21.66 44.92,23.55 41.23,25.44 37.22,27.20 33.20,28.95 30.01,30.51 26.82,32.06 25.69,32.33 24.56,32.60 22.90,32.08 21.24,31.55 21.65,29.50 22.05,27.44 22.82,26.64 23.58,25.84 25.14,23.97 26.70,22.11 28.50,20.39 30.30,18.68 31.91,17.29 33.51,15.91 35.41,14.18 37.30,12.46 38.81,11.29 40.33,10.12 43.17,7.93 46.01,5.74 47.71,4.27 49.41,2.80 51.75,1.04 54.10,-0.71 56.32,-2.46 58.54,-4.20 60.82,-6.03 63.10,-7.86 64.41,-9.01 65.73,-10.17 67.07,-11.39 68.41,-12.61 68.70,-12.59 69.00,-12.56 69.29,-12.46 69.57,-12.37 69.83,-12.20 70.08,-12.04 70.28,-11.82 70.49,-11.60 70.64,-11.34 70.79,-11.08 70.87,-10.79 70.95,-10.50 70.96,-10.20 70.97,-9.90 70.91,-9.61 70.85,-9.31 70.71,-9.04 70.58,-8.77 70.39,-8.54 70.20,-8.31 69.96,-8.13 69.72,-7.95 69.44,-7.84 69.16,-7.72 68.87,-7.68 68.57,-7.63 67.49,-7.86 66.41,-8.10 65.03,-8.21 63.64,-8.32 62.43,-7.72 61.22,-7.13 60.07,-6.55 58.92,-5.96 57.10,-4.71 55.28,-3.46 52.50,-1.50 49.72,0.46 45.98,2.84 42.23,5.22 38.33,7.60 34.43,9.98 29.77,12.73 25.11,15.49 21.19,17.41 17.27,19.33 17.17,19.59 17.07,19.85 16.91,20.08 16.75,20.31 16.53,20.49 16.32,20.67 16.07,20.80 15.83,20.93 15.55,20.99 15.28,21.06 15.00,21.05 14.72,21.05 14.45,20.98 14.18,20.91 13.94,20.78 13.69,20.64 13.48,20.45 13.28,20.27 13.12,20.03 12.97,19.80 12.87,19.54 12.77,19.28 12.74,19.00 12.71,18.72 12.75,18.45 12.79,18.17 12.76,17.93 12.73,17.69 13.07,16.65 13.40,15.61 14.12,13.77 14.84,11.93 15.68,10.97 16.53,10.02 17.70,8.83 18.87,7.64 20.29,6.18 21.70,4.72 22.97,3.58 24.24,2.44 25.75,1.08 27.26,-0.27 28.58,-1.27 29.90,-2.27 31.38,-3.61 32.87,-4.96 34.71,-6.49 36.55,-8.02 38.05,-9.10 39.55,-10.19 40.90,-11.26 42.25,-12.33 43.54,-12.90 44.84,-13.47 44.71,-11.58 44.58,-9.70 43.38,-9.11 42.17,-8.52 40.98,-8.10 39.79,-7.67 38.89,-6.99 37.99,-6.32 36.84,-5.73 35.70,-5.13 34.34,-4.41 32.99,-3.68 30.71,-2.38 28.44,-1.09 26.16,0.05 23.87,1.19 21.47,2.47 19.08,3.74 17.27,4.07 15.47,4.40 14.65,3.70 13.82,3.00 13.76,1.93 13.71,0.85 14.51,-0.42 15.31,-1.69 16.30,-3.44 17.30,-5.19 18.39,-7.07 19.49,-8.95 20.80,-11.15 22.11,-13.36 23.97,-16.21 25.83,-19.06 26.31,-20.02 26.78,-20.98 27.82,-22.17 28.85,-23.35 29.18,-23.42 29.51,-23.49 29.84,-23.48 30.18,-23.47 30.51,-23.38 30.83,-23.29 31.12,-23.13 31.42,-22.96 31.66,-22.73 31.91,-22.50 32.09,-22.21 32.27,-21.93 32.38,-21.61 32.49,-21.29 32.52,-20.96 32.55,-20.62 32.50,-20.29 32.45,-19.96 32.32,-19.64 32.19,-19.33 31.99,-19.06 31.79,-18.79 31.53,-18.57 31.27,-18.36 30.97,-18.21 30.67,-18.06 29.74,-17.98 28.81,-17.89 27.50,-17.56 26.20,-17.24 25.14,-16.95 24.09,-16.66 23.03,-16.34 21.98,-16.01 20.83,-15.49 19.68,-14.96 18.04,-13.92 16.40,-12.88 15.07,-11.95 13.74,-11.01 12.44,-9.95 11.13,-8.89 10.12,-8.09 9.10,-7.28 8.20,-6.52 7.29,-5.77 5.95,-4.47 4.61,-3.17 3.83,-1.86 3.06,-0.55 2.59,0.25 2.13,1.06 1.97,1.30 1.81,1.54 1.60,1.74 1.39,1.93 1.14,2.07 0.89,2.21 0.61,2.28 0.33,2.36 0.04,2.36 -0.24,2.37 -0.52,2.31 -0.80,2.24 -1.05,2.11 -1.31,1.99 -1.53,1.80 -1.75,1.61 -1.92,1.38 -2.09,1.15 -2.19,0.88 -2.30,0.61 -2.34,0.33 -2.38,0.04 -2.35,-0.23 -2.32,-0.52 -2.23,-0.79 -2.13,-1.06 -2.13,-1.06 L -2.13,-1.06 Z"></path></g><g stroke-opacity="0.1" fill-opacity="0.1" transform="translate(108.95017964747785 63.54948939410322) rotate(0 -40.01660991214077 -7.130221451935064)" stroke="none"><path fill="#0b7285" d="M 1.32,0.95 Q 1.32,0.95 0.25,2.47 -0.82,3.98 -2.06,5.50 -3.31,7.02 -4.68,8.77 -6.05,10.51 -7.42,12.06 -8.79,13.62 -10.42,15.20 -12.05,16.78 -13.91,18.53 -15.78,20.27 -17.85,22.11 -19.91,23.94 -22.60,25.85 -25.29,27.76 -27.13,28.84 -28.96,29.92 -30.78,30.76 -32.60,31.61 -33.63,32.08 -34.65,32.55 -35.94,32.99 -37.22,33.43 -38.26,33.13 -39.30,32.82 -39.67,31.64 -40.05,30.47 -38.10,28.61 -36.16,26.75 -34.17,25.84 -32.19,24.92 -28.23,23.16 -24.27,21.40 -21.41,19.80 -18.54,18.20 -17.30,17.30 -16.06,16.39 -14.89,14.84 -13.72,13.28 -12.01,10.67 -10.30,8.06 -9.76,6.90 -9.22,5.74 -8.59,4.08 -7.97,2.41 -7.73,0.89 -7.50,-0.62 -7.01,-2.49 -6.52,-4.36 -6.10,-8.08 -5.69,-11.80 -5.53,-13.85 -5.37,-15.90 -5.48,-17.20 -5.59,-18.51 -6.00,-20.24 -6.41,-21.98 -6.71,-23.11 -7.02,-24.23 -7.81,-25.69 -8.59,-27.15 -9.65,-28.46 -10.70,-29.76 -11.39,-30.69 -12.08,-31.61 -12.90,-32.75 -13.73,-33.88 -14.84,-35.27 -15.96,-36.66 -16.80,-37.44 -17.64,-38.21 -18.72,-38.97 -19.80,-39.72 -20.86,-40.19 -21.92,-40.66 -23.25,-40.98 -24.57,-41.30 -25.83,-41.70 -27.10,-42.09 -28.24,-42.31 -29.39,-42.53 -30.65,-42.60 -31.92,-42.67 -33.25,-42.65 -34.58,-42.63 -36.85,-41.79 -39.12,-40.96 -41.61,-39.97 -44.09,-38.98 -46.47,-38.20 -48.84,-37.41 -50.15,-36.78 -51.46,-36.16 -53.34,-35.56 -55.21,-34.97 -57.38,-34.46 -59.55,-33.96 -61.36,-33.47 -63.17,-32.99 -64.72,-32.26 -66.27,-31.52 -67.55,-30.87 -68.84,-30.22 -69.86,-29.38 -70.88,-28.54 -71.77,-27.77 -72.65,-27.00 -73.73,-25.38 -74.80,-23.75 -76.21,-21.36 -77.62,-18.97 -77.89,-18.67 -78.16,-18.38 -78.51,-18.18 -78.86,-17.99 -79.25,-17.92 -79.64,-17.84 -80.03,-17.90 -80.43,-17.96 -80.78,-18.14 -81.14,-18.31 -81.42,-18.60 -81.70,-18.88 -81.87,-19.24 -82.05,-19.60 -82.10,-19.99 -82.15,-20.39 -82.07,-20.78 -82.00,-21.17 -81.80,-21.51 -81.60,-21.86 -81.30,-22.12 -81.00,-22.39 -80.64,-22.54 -80.27,-22.70 -79.87,-22.73 -79.48,-22.76 -79.09,-22.66 -78.70,-22.56 -78.37,-22.35 -78.04,-22.13 -77.79,-21.82 -77.54,-21.50 -77.40,-21.13 -77.27,-20.76 -77.26,-20.36 -77.25,-19.96 -77.37,-19.58 -77.49,-19.20 -77.73,-18.88 -77.96,-18.55 -78.29,-18.32 -78.61,-18.09 -78.99,-17.98 -79.37,-17.86 -79.77,-17.88 -80.17,-17.89 -80.54,-18.03 -80.92,-18.17 -81.22,-18.42 -81.53,-18.67 -81.75,-19.01 -81.96,-19.35 -82.05,-19.73 -82.15,-20.12 -82.11,-20.52 -82.08,-20.91 -81.92,-21.28 -81.76,-21.64 -81.76,-21.64 -81.76,-21.64 -80.29,-23.94 -78.83,-26.24 -78.07,-27.35 -77.30,-28.45 -76.31,-29.44 -75.32,-30.43 -74.32,-31.11 -73.33,-31.80 -71.91,-32.79 -70.48,-33.79 -69.16,-34.33 -67.84,-34.86 -66.01,-35.72 -64.18,-36.59 -62.39,-37.11 -60.59,-37.63 -58.59,-38.30 -56.59,-38.98 -54.95,-39.59 -53.32,-40.20 -51.89,-40.84 -50.46,-41.47 -48.36,-42.47 -46.26,-43.47 -44.11,-44.72 -41.97,-45.97 -40.22,-47.06 -38.47,-48.14 -36.50,-48.43 -34.53,-48.72 -33.01,-48.65 -31.50,-48.58 -29.94,-48.36 -28.39,-48.15 -26.88,-47.90 -25.38,-47.64 -24.34,-47.32 -23.31,-47.01 -21.40,-46.43 -19.49,-45.86 -17.99,-44.98 -16.50,-44.09 -15.29,-43.01 -14.08,-41.92 -13.16,-41.00 -12.23,-40.08 -10.77,-38.67 -9.31,-37.25 -8.40,-36.11 -7.49,-34.97 -6.27,-33.29 -5.05,-31.60 -4.40,-30.63 -3.75,-29.66 -2.83,-27.56 -1.92,-25.45 -1.80,-24.29 -1.68,-23.13 -1.49,-22.09 -1.31,-21.04 -1.25,-19.88 -1.19,-18.73 -1.16,-17.27 -1.13,-15.82 -1.04,-13.74 -0.96,-11.66 -0.89,-8.55 -0.82,-5.45 -1.05,-4.29 -1.29,-3.14 -1.88,-1.28 -2.48,0.57 -3.01,2.39 -3.54,4.20 -4.49,5.96 -5.44,7.71 -6.15,8.96 -6.86,10.21 -8.63,13.09 -10.39,15.97 -11.21,16.85 -12.02,17.73 -13.02,18.56 -14.02,19.40 -15.41,20.28 -16.81,21.15 -19.75,22.95 -22.69,24.75 -26.49,26.65 -30.29,28.56 -31.99,29.57 -33.70,30.58 -35.12,31.14 -36.55,31.70 -36.62,30.56 -36.70,29.43 -35.24,29.18 -33.78,28.94 -32.07,28.23 -30.36,27.52 -28.63,26.51 -26.90,25.50 -24.34,23.68 -21.79,21.85 -19.78,20.02 -17.77,18.19 -15.96,16.43 -14.15,14.67 -12.65,13.12 -11.14,11.57 -9.85,10.09 -8.57,8.61 -7.23,6.75 -5.89,4.90 -4.71,3.46 -3.52,2.03 -2.42,0.53 -1.32,-0.95 -1.19,-1.10 -1.05,-1.24 -0.89,-1.35 -0.72,-1.46 -0.54,-1.52 -0.35,-1.59 -0.16,-1.61 0.03,-1.63 0.22,-1.60 0.42,-1.57 0.60,-1.50 0.79,-1.43 0.94,-1.31 1.10,-1.19 1.23,-1.04 1.36,-0.89 1.45,-0.72 1.53,-0.54 1.58,-0.35 1.62,-0.16 1.62,0.03 1.61,0.23 1.56,0.42 1.51,0.61 1.41,0.78 1.32,0.95 1.32,0.95 L 1.32,0.95 Z"></path></g></svg>