<svg version="1.1" xmlns="http://www.w3.org/2000/svg" viewBox="0 0 218.6687742535999 299.7813709991973" width="218.6687742535999" height="299.7813709991973" class="excalidraw-svg"><!-- svg-source:excalidraw --><metadata></metadata><defs><style class="style-fonts">
      </style></defs><rect x="0" y="0" width="218.6687742535999" height="299.7813709991973" fill="#ffffff"></rect><g stroke-linecap="round"><g transform="translate(125.72221556610663 247.28926533580253) rotate(0 0 -46.73329962732146)" fill-rule="evenodd"><path d="M2.32 2.24 C10.47 2.37, 42.57 12.1, 50.61 2.41 C58.65 -7.29, 52.79 -42, 50.55 -55.92 C48.31 -69.84, 45.32 -74.56, 37.19 -81.09 C29.05 -87.62, 14.19 -95.77, 1.73 -95.09 C-10.73 -94.42, -29.17 -83.75, -37.58 -77.02 C-45.99 -70.3, -46.38 -67.19, -48.73 -54.75 C-51.09 -42.3, -59.49 -11.27, -51.69 -2.35 C-43.89 6.58, -10.86 -1.49, -1.94 -1.22" stroke="none" stroke-width="0" fill="#fa5252" fill-rule="evenodd"></path><path d="M-0.84 0.92 C7.66 0.99, 41.74 10.12, 50.61 0.48 C59.49 -9.16, 54.63 -43.59, 52.42 -56.9 C50.21 -70.21, 45.57 -73.48, 37.35 -79.38 C29.13 -85.28, 15.43 -92.26, 3.11 -92.3 C-9.21 -92.35, -27.77 -85.83, -36.57 -79.65 C-45.36 -73.48, -47.12 -68.62, -49.68 -55.25 C-52.24 -41.87, -60.31 -8.68, -51.94 0.61 C-43.56 9.91, -8.28 0.44, 0.55 0.53 M0.91 0.36 C9.82 0.06, 44.25 7.96, 52.77 -1.39 C61.29 -10.74, 54.51 -42.38, 52.05 -55.73 C49.58 -69.09, 46.34 -74.99, 37.98 -81.53 C29.63 -88.07, 14.69 -95.62, 1.92 -94.96 C-10.84 -94.31, -30.17 -84.5, -38.61 -77.59 C-47.05 -70.69, -46.28 -66.58, -48.7 -53.55 C-51.11 -40.52, -61.08 -8.24, -53.1 0.59 C-45.12 9.42, -9.47 -0.69, -0.83 -0.57" stroke="#000000" stroke-width="2" fill="none"></path></g></g><mask></mask><g stroke-linecap="round" transform="translate(55.983448174683076 193.11713325337107) rotate(0 69.42925165222599 46.286167768150676)"><path d="M1.75 0.95 L137.45 0.92 L137.88 91.88 L0.29 91.71" stroke="none" stroke-width="0" fill="#ced4da"></path><path d="M0 0 C32.69 2.47, 63.31 2.46, 138.86 0 M0 0 C50.86 -2.24, 101.6 -2.33, 138.86 0 M138.86 0 C140.22 27.59, 141.23 52.95, 138.86 92.57 M138.86 0 C139.3 34.87, 139.28 68.06, 138.86 92.57 M138.86 92.57 C92.62 91.59, 50.32 93.39, 0 92.57 M138.86 92.57 C100.25 90.74, 63.98 90.94, 0 92.57 M0 92.57 C0.63 62.39, -1.31 29.7, 0 0 M0 92.57 C-0.27 57.48, 0.1 23.12, 0 0" stroke="#000000" stroke-width="2" fill="none"></path></g><g stroke-linecap="round" transform="translate(117.70410641099289 231.6947076056056) rotate(0 7.708593415916141 7.708593415916141)"><path d="M8 -0.23 C9.55 -0.31, 11.36 0.82, 12.56 1.88 C13.76 2.95, 14.99 4.44, 15.19 6.17 C15.39 7.89, 14.56 10.69, 13.77 12.22 C12.97 13.75, 11.98 14.84, 10.42 15.35 C8.86 15.86, 6 16, 4.4 15.29 C2.8 14.58, 1.46 12.69, 0.81 11.09 C0.16 9.49, 0.16 7.33, 0.52 5.71 C0.87 4.09, 1.66 2.3, 2.94 1.36 C4.21 0.42, 7.21 0.31, 8.18 0.06 C9.15 -0.19, 8.77 -0.19, 8.74 -0.11 M7.44 -0.54 C8.93 -0.84, 11.01 0.1, 12.28 1.11 C13.55 2.13, 14.54 3.89, 15.06 5.55 C15.58 7.22, 16.17 9.52, 15.38 11.12 C14.6 12.71, 12.05 14.45, 10.35 15.14 C8.65 15.84, 6.68 15.69, 5.18 15.28 C3.68 14.88, 2.18 14.19, 1.33 12.71 C0.49 11.23, -0.11 8.13, 0.1 6.42 C0.31 4.71, 1.5 3.61, 2.6 2.46 C3.7 1.3, 6.08 -0.01, 6.7 -0.52 C7.33 -1.02, 6.27 -0.78, 6.37 -0.56" stroke="none" stroke-width="0" fill="#ffffff"></path><path d="M9.37 0.25 C10.81 0.4, 12.14 1.7, 13.06 2.9 C13.99 4.09, 14.77 5.79, 14.92 7.44 C15.08 9.08, 14.89 11.39, 13.97 12.77 C13.06 14.15, 11.01 15.38, 9.43 15.72 C7.85 16.06, 5.9 15.61, 4.47 14.81 C3.04 14.02, 1.45 12.61, 0.85 10.97 C0.25 9.34, 0.31 6.69, 0.87 5.01 C1.43 3.33, 2.79 1.68, 4.21 0.89 C5.62 0.09, 8.49 0.38, 9.34 0.26 C10.18 0.15, 9.37 0.1, 9.27 0.19 M8.93 -0.62 C10.31 -0.5, 11.77 0.96, 12.94 2.29 C14.12 3.62, 15.8 5.64, 15.97 7.36 C16.15 9.09, 15.05 11.3, 13.99 12.66 C12.93 14.03, 11.2 15.33, 9.61 15.56 C8.02 15.78, 5.95 14.75, 4.44 13.99 C2.93 13.23, 1.11 12.39, 0.54 10.99 C-0.04 9.59, 0.38 7.36, 0.97 5.62 C1.56 3.88, 2.63 1.56, 4.05 0.54 C5.48 -0.47, 8.59 -0.47, 9.51 -0.46 C10.43 -0.45, 9.77 0.33, 9.56 0.6" stroke="#000000" stroke-width="2" fill="none"></path></g><g stroke-linecap="round"><g transform="translate(55.51382198199866 277.93891580849413) rotate(0 69.51625849365843 5.366677522361329)" fill-rule="evenodd"><path d="M-1.07 2.41 C-3.21 2.76, -11.36 3.28, -10.56 4.34 C-9.75 5.4, -20.48 7.7, 3.76 8.77 C28.01 9.85, 110.9 11.16, 134.91 10.8 C158.92 10.45, 146.98 8.86, 147.84 6.66 C148.7 4.46, 164.71 -0.88, 140.07 -2.38 C115.42 -3.88, 23.66 -2.54, -0.01 -2.35" stroke="none" stroke-width="0" fill="#ced4da" fill-rule="evenodd"></path><path d="M0.74 0.77 C-0.87 1.61, -9.36 3.49, -8.89 4.8 C-8.41 6.12, -20.63 7.58, 3.58 8.65 C27.79 9.73, 112.29 11.75, 136.39 11.26 C160.49 10.77, 147.76 7.78, 148.2 5.71 C148.64 3.64, 163.56 -0.41, 139.04 -1.17 C114.52 -1.93, 24.12 0.81, 1.09 1.14 M-0.34 0.12 C-2.12 0.69, -10.11 1.75, -9.55 3.29 C-8.99 4.84, -21.41 8, 3.02 9.41 C27.44 10.81, 112.43 12.24, 136.97 11.74 C161.51 11.24, 150.24 8.7, 150.25 6.42 C150.27 4.15, 162.35 -0.92, 137.08 -1.93 C111.81 -2.93, 21.44 -0.07, -1.36 0.39" stroke="#000000" stroke-width="2" fill="none"></path></g></g><mask></mask><g stroke-linecap="round" transform="translate(79.95436574491322 68.91613299856658) rotate(0 46.286167768150676 46.286167768150676)"><path d="M60.15 1.72 C68.15 3.23, 77.3 9.58, 82.64 15.99 C87.98 22.41, 91.3 31.78, 92.18 40.21 C93.06 48.63, 91.42 59.06, 87.91 66.55 C84.4 74.05, 78.27 80.93, 71.11 85.19 C63.96 89.46, 53.48 92.09, 44.97 92.12 C36.45 92.16, 26.87 89.9, 20.02 85.4 C13.18 80.9, 7.23 72.87, 3.87 65.12 C0.51 57.36, -1.43 47.22, -0.14 38.88 C1.16 30.54, 5.95 21.13, 11.65 15.07 C17.35 9, 24.29 4.05, 34.07 2.5 C43.85 0.94, 62.91 3.99, 70.32 5.75 C77.74 7.51, 78.96 12.27, 78.55 13.06 M63.99 3.6 C71.47 5.93, 78.69 11.69, 83.22 18.15 C87.76 24.61, 90.57 33.84, 91.18 42.35 C91.79 50.86, 90.55 61.77, 86.86 69.22 C83.18 76.67, 76.51 83.37, 69.05 87.03 C61.59 90.69, 50.44 92.05, 42.1 91.19 C33.76 90.32, 25.82 86.75, 19 81.86 C12.18 76.97, 4.01 69.75, 1.18 61.85 C-1.65 53.95, 0.1 42.48, 2.01 34.44 C3.93 26.4, 6.86 18.98, 12.69 13.61 C18.53 8.23, 28.61 4.13, 37.01 2.19 C45.41 0.25, 58.98 1.48, 63.09 1.96 C67.21 2.44, 61.72 4.21, 61.71 5.07" stroke="none" stroke-width="0" fill="#ffffff"></path><path d="M52.72 0.38 C60.88 1, 71.3 6.56, 77.74 12.32 C84.18 18.09, 89.09 26.88, 91.37 34.96 C93.65 43.04, 93.86 52.86, 91.4 60.83 C88.94 68.8, 83.03 77.6, 76.62 82.76 C70.21 87.92, 61.18 90.98, 52.96 91.78 C44.73 92.58, 34.91 91.06, 27.28 87.57 C19.65 84.08, 11.8 77.91, 7.19 70.83 C2.58 63.75, -0.37 53.52, -0.38 45.1 C-0.39 36.68, 2.34 27.07, 7.14 20.3 C11.95 13.54, 19.01 7.27, 28.46 4.49 C37.92 1.7, 56.6 2.85, 63.88 3.58 C71.15 4.32, 72.45 8.05, 72.11 8.89 M40.22 1.08 C48.02 -0.93, 58.66 -0.36, 66.14 3.13 C73.61 6.62, 80.49 14.74, 85.08 22.01 C89.66 29.29, 93.5 38.79, 93.66 46.77 C93.82 54.75, 90.47 63.17, 86.03 69.89 C81.59 76.62, 74.46 83.29, 67.02 87.12 C59.58 90.95, 50.02 93.68, 41.38 92.86 C32.75 92.04, 21.9 87.82, 15.21 82.2 C8.52 76.59, 3.46 67.38, 1.25 59.17 C-0.95 50.96, -0.48 40.89, 1.98 32.96 C4.45 25.03, 9.93 17.16, 16.04 11.59 C22.14 6.03, 34.77 1.35, 38.63 -0.41 C42.48 -2.18, 39.17 0.31, 39.16 0.99" stroke="#000000" stroke-width="2" fill="none"></path></g><g stroke-linecap="round"><g transform="translate(94.7342025859923 113.48077201583442) rotate(356.85899504108176 10.070642772373276 -6.473928936471694)"><path d="M0.18 -0.49 C0.73 -1.99, 1.76 -6.45, 3.56 -8.48 C5.37 -10.51, 8.72 -12.69, 10.99 -12.67 C13.25 -12.64, 15.56 -10.26, 17.17 -8.32 C18.78 -6.39, 20.08 -2.25, 20.64 -1.06 M-0.4 0.45 C0.09 -0.78, 1.45 -5.72, 3.28 -8.05 C5.11 -10.39, 8.22 -13.37, 10.58 -13.59 C12.93 -13.81, 15.8 -11.24, 17.41 -9.36 C19.02 -7.47, 19.84 -3.59, 20.23 -2.28" stroke="#000000" stroke-width="2" fill="none"></path></g></g><mask></mask><g stroke-linecap="round"><g transform="translate(133.92729884059253 113.8289795983672) rotate(356.85899504108176 10.070642772373276 -6.473928936471694)"><path d="M0.29 -0.54 C0.79 -1.73, 1.31 -5.63, 3.15 -7.66 C5 -9.68, 8.98 -12.64, 11.36 -12.7 C13.74 -12.77, 15.89 -9.96, 17.41 -8.04 C18.94 -6.13, 19.98 -2.38, 20.53 -1.22 M-0.22 0.37 C0.18 -0.94, 0.77 -6.14, 2.66 -8.48 C4.55 -10.81, 8.9 -13.57, 11.14 -13.65 C13.38 -13.72, 14.63 -11.07, 16.12 -8.94 C17.6 -6.8, 19.42 -2.13, 20.05 -0.86" stroke="#000000" stroke-width="2" fill="none"></path></g></g><mask></mask><g stroke-linecap="round"><g transform="translate(104.38825155904004 132.74258690122582) rotate(0 19.081629101417917 3.6734713541056863)"><path d="M-0.12 0.28 C2.91 1.64, 11.97 7.18, 18.44 7.59 C24.9 8, 35.31 3.57, 38.66 2.74 M0.82 -0.05 C3.77 1.19, 11.85 6.42, 18.14 6.75 C24.43 7.08, 35.12 2.8, 38.57 1.94" stroke="#000000" stroke-width="2" fill="none"></path></g></g><mask></mask><g stroke-linecap="round"><g transform="translate(124.46646998421829 65.22304911272292) rotate(0 -8.051031790266393 -3.732317843034565)"><path d="M0.25 0.24 C-2.33 -0.96, -12.94 -5.72, -15.6 -6.94 M-0.28 -0.11 C-2.88 -1.47, -13.18 -6.33, -15.78 -7.64" stroke="#000000" stroke-width="2" fill="none"></path></g></g><mask></mask><g stroke-linecap="round"><g transform="translate(127.68215068548983 64.18850942722676) rotate(0 14.210214056101563 -1.3789276617292145)"><path d="M0.5 0.52 C2.46 0.1, 7.28 -1.82, 12.02 -2.28 C16.77 -2.75, 26.25 -2.27, 28.94 -2.25 M0.09 0.32 C1.99 -0.28, 7 -2.5, 11.79 -3.06 C16.59 -3.63, 26.13 -3.06, 28.86 -3.06" stroke="#000000" stroke-width="2" fill="none"></path></g></g><mask></mask><g stroke-linecap="round"><g transform="translate(121.903354139317 66.99446473975985) rotate(0 -15.162590896998722 0.005937089505017923)"><path d="M0.38 0.36 C-2.57 0.16, -12.09 -0.96, -17.25 -0.72 C-22.41 -0.48, -28.34 1.42, -30.56 1.78 M-0.08 0.07 C-3.11 -0.04, -12.26 -1.58, -17.42 -1.43 C-22.58 -1.27, -28.84 0.42, -31.04 0.99" stroke="#000000" stroke-width="2" fill="none"></path></g></g><mask></mask><g stroke-linecap="round"><g transform="translate(53.579109477675104 72.09223581138178) rotate(0 1.1134278148687429 -15.792257726320216)" fill-rule="evenodd"><path d="M1.82 -0.74 C0.3 -2.13, -9.19 -5.08, -11.02 -9.59 C-12.85 -14.1, -11.71 -23.89, -9.15 -27.8 C-6.59 -31.71, 0.51 -33.89, 4.34 -33.05 C8.17 -32.22, 11.88 -27.54, 13.83 -22.79 C15.77 -18.04, 18.14 -8.07, 16 -4.57 C13.86 -1.07, 3.33 -2.25, 0.98 -1.79" stroke="none" stroke-width="0" fill="#fad905" fill-rule="evenodd"></path><path d="M1.14 1.1 C-1.09 -0.48, -10.47 -3.79, -12.52 -8.7 C-14.57 -13.61, -13.75 -24.47, -11.16 -28.36 C-8.57 -32.25, -1.05 -32.56, 3.03 -32.05 C7.12 -31.55, 11.51 -29.8, 13.32 -25.33 C15.14 -20.86, 16.01 -9.39, 13.92 -5.22 C11.83 -1.06, 3.1 -1.01, 0.78 -0.33 M0.28 0.63 C-2.23 -1.32, -11.66 -5.01, -13.74 -10.2 C-15.83 -15.39, -15.08 -27.02, -12.22 -30.52 C-9.36 -34.02, -1.16 -32.05, 3.43 -31.19 C8.01 -30.33, 13.34 -29.58, 15.29 -25.36 C17.25 -21.14, 17.42 -10.39, 15.17 -5.86 C12.93 -1.33, 4.53 0.57, 1.82 1.81" stroke="#fab005" stroke-width="2" fill="none"></path></g></g><mask></mask><g stroke-linecap="round"><g transform="translate(60.17513738617902 76.33097792776564) rotate(0 6.841654134846948 -3.1431024725089856)"><path d="M-0.24 0.54 C1.91 -0.56, 11.09 -4.96, 13.43 -6.13 M0.64 0.34 C2.65 -0.7, 10.72 -5.95, 12.87 -7.01" stroke="#fab005" stroke-width="2" fill="none"></path></g></g><mask></mask><g stroke-linecap="round"><g transform="translate(64.71861895827192 80.13230842666312) rotate(0 4.402884394155848 -2.251755784148095)"><path d="M-0.16 0.1 C1.34 -0.73, 7.41 -3.83, 8.89 -4.64 M0.4 -0.15 C1.88 -0.79, 7.32 -3.54, 8.65 -4.26" stroke="#fab005" stroke-width="2" fill="none"></path></g></g><mask></mask><g stroke-linecap="round"><g transform="translate(68.19343879125478 84.31141171675094) rotate(0 4.402884394155848 -2.251755784148102)"><path d="M0.08 -0.14 C1.56 -0.95, 7.25 -4.05, 8.68 -4.74 M-0.3 -0.52 C1.13 -1.29, 6.89 -3.69, 8.34 -4.41" stroke="#fab005" stroke-width="2" fill="none"></path></g></g><mask></mask><g stroke-linecap="round"><g transform="translate(46.506660804765886 33.081397129912084) rotate(0 2.535520637495665 -11.323016720146484)"><path d="M-0.19 -0.37 C0.61 -4.05, 4 -18.56, 4.93 -22.3 M0.72 0.64 C1.42 -3.18, 3.67 -19.26, 4.43 -23.08" stroke="#fab005" stroke-width="2" fill="none"></path></g></g><mask></mask><g stroke-linecap="round"><g transform="translate(67.07445935884635 39.8110252072667) rotate(20.406720150847715 2.535520637495665 -11.323016720146484)"><path d="M-0.14 0.35 C0.8 -3.39, 4.56 -18.88, 5.43 -22.8 M0.79 0.05 C1.7 -3.57, 4.52 -18.36, 5.18 -22.18" stroke="#fab005" stroke-width="2" fill="none"></path></g></g><mask></mask><g stroke-linecap="round"><g transform="translate(83.55983982002982 54.013787489751046) rotate(75.02510094756782 2.535520637495665 -11.323016720146484)"><path d="M0.36 -0.15 C1.22 -4.07, 4.36 -19.38, 5.07 -23.17 M-0.13 -0.71 C0.68 -4.61, 3.66 -19.12, 4.64 -22.74" stroke="#fab005" stroke-width="2" fill="none"></path></g></g><mask></mask><g stroke-linecap="round"><g transform="translate(37.16255757655722 90.06367588368121) rotate(20.406720150847715 2.535520637495665 -11.323016720146484)"><path d="M0 -0.53 C0.71 -4.32, 3.72 -19.21, 4.63 -22.92 M-0.67 0.39 C0.18 -3.32, 4.64 -18.58, 5.64 -22.36" stroke="#fab005" stroke-width="2" fill="none"></path></g></g><mask></mask><g stroke-linecap="round"><g transform="translate(19.454655088369748 69.4868846946801) rotate(66.91404318211352 2.535520637495665 -11.323016720146484)"><path d="M-0.44 -0.27 C0.48 -3.99, 4.52 -19.09, 5.48 -22.81 M0.34 0.78 C1.22 -2.81, 4.47 -18.41, 5.26 -22.2" stroke="#fab005" stroke-width="2" fill="none"></path></g></g><mask></mask><g stroke-linecap="round"><g transform="translate(18.468733802982683 49.896080490684305) rotate(96.22846988960272 2.535520637495665 -11.323016720146484)"><path d="M0.41 -0.17 C1.36 -3.88, 4.46 -18.87, 5.29 -22.58 M-0.05 -0.73 C0.89 -4.32, 4.1 -18.07, 4.97 -21.85" stroke="#fab005" stroke-width="2" fill="none"></path></g></g><mask></mask></svg>