<svg version="1.1" xmlns="http://www.w3.org/2000/svg" viewBox="0 0 94.41341696153856 169.48658766030013" width="94.41341696153856" height="169.48658766030013" class="excalidraw-svg"><!-- svg-source:excalidraw --><metadata></metadata><defs><style class="style-fonts">
      </style></defs><g stroke-linecap="round" transform="translate(21.805244860868363 101.56032757176399) rotate(0.8347181281138402 19.33433815954837 28.823827493880934)"><path d="M0 0 C0 0, 0 0, 0 0 M0 0 C0 0, 0 0, 0 0 M-0.26 6.4 C1.35 4.14, 3.68 1.35, 4.99 0.36 M-0.26 6.4 C0.79 5.12, 2.07 3.33, 4.99 0.36 M0.13 12.04 C2.29 6.84, 5.9 5.54, 10.63 -0.03 M0.13 12.04 C2.91 8.41, 6.04 4.3, 10.63 -0.03 M-0.13 18.44 C6.27 9.52, 12.85 3.56, 15.62 0.33 M-0.13 18.44 C2.92 15.04, 5.97 11.44, 15.62 0.33 M0.27 24.08 C5.47 19.04, 10.15 13.36, 21.26 -0.07 M0.27 24.08 C6.43 16.81, 13.04 8.83, 21.26 -0.07 M0 30.48 C7.38 24.34, 11.63 17.45, 26.25 0.29 M0 30.48 C4.87 23.59, 11.15 18.23, 26.25 0.29 M-0.26 36.88 C10.54 25.76, 20.77 12.92, 31.89 -0.1 M-0.26 36.88 C6.77 28.74, 13.65 19.55, 31.89 -0.1 M0.14 42.52 C9.54 32.77, 15.83 23.6, 36.88 0.26 M0.14 42.52 C12.51 27.31, 26.76 13.37, 36.88 0.26 M-0.12 48.92 C13.07 30.82, 31.84 15.73, 39.24 3.64 M-0.12 48.92 C13.06 33.95, 25.6 20.07, 39.24 3.64 M0.27 54.56 C14.75 38.52, 27.83 21.54, 38.98 10.03 M0.27 54.56 C9.39 42.82, 18.3 33.81, 38.98 10.03 M2.63 57.94 C14.43 46.66, 21.63 34.81, 39.37 15.68 M2.63 57.94 C12.25 47.45, 21.6 37.57, 39.37 15.68 M8.28 57.55 C19.61 45.66, 32.05 29.84, 39.11 22.07 M8.28 57.55 C17.72 46.51, 26.29 35.15, 39.11 22.07 M13.26 57.91 C23.05 44.95, 32.91 34.01, 39.51 27.72 M13.26 57.91 C23.27 46.87, 31.48 36.46, 39.51 27.72 M18.91 57.51 C25.96 53.13, 29.47 44.13, 39.24 34.12 M18.91 57.51 C23.96 51.22, 29.11 47.38, 39.24 34.12 M23.89 57.87 C26 54.32, 29.33 51.5, 38.98 40.51 M23.89 57.87 C30.38 51.48, 35.46 45.01, 38.98 40.51 M29.54 57.48 C33.41 54.44, 35.97 49.55, 39.38 46.16 M29.54 57.48 C32.44 54.44, 35.28 50.48, 39.38 46.16 M34.52 57.84 C36.88 55.89, 37.96 54.28, 39.12 52.55 M34.52 57.84 C35.67 56.71, 36.86 55.16, 39.12 52.55" stroke="#000000" stroke-width="0.5" fill="none"></path><path d="M0 0 C11.4 -0.5, 24.79 -1.56, 38.67 0 M0 0 C7.72 0.46, 16.72 -0.93, 38.67 0 M38.67 0 C37.35 18.71, 36.58 37.93, 38.67 57.65 M38.67 0 C38.21 17.74, 38.24 37.9, 38.67 57.65 M38.67 57.65 C24.89 56.59, 13.26 58.74, 0 57.65 M38.67 57.65 C29.09 58.38, 20.59 57.32, 0 57.65 M0 57.65 C1.81 41.65, 1.89 27.22, 0 0 M0 57.65 C1.04 37.63, 0.7 16.46, 0 0" stroke="#000000" stroke-width="1" fill="none"></path></g><g stroke-linecap="round" transform="translate(22.57772682843018 44.08737054587556) rotate(3.8298096854314148 18.36052864931891 22.30870491854592)"><path d="M0 0 C0 0, 0 0, 0 0 M0 0 C0 0, 0 0, 0 0 M-0.26 6.4 C1.26 4.62, 2.53 2.88, 4.99 0.36 M-0.26 6.4 C1.21 4.69, 2.42 3.4, 4.99 0.36 M0.13 12.04 C2.15 8.45, 6.13 5.93, 10.63 -0.03 M0.13 12.04 C2.81 8.79, 5.24 6.17, 10.63 -0.03 M-0.13 18.44 C2.27 14.86, 6.17 9.94, 15.62 0.33 M-0.13 18.44 C5.69 11.75, 11.41 5.41, 15.62 0.33 M0.27 24.08 C6.63 17.08, 12.67 10.43, 21.26 -0.07 M0.27 24.08 C5 18.61, 9.37 13.2, 21.26 -0.07 M0 30.48 C6.46 23.14, 12.54 15.4, 26.25 0.29 M0 30.48 C5.28 24.18, 11.31 17.89, 26.25 0.29 M-0.26 36.88 C13.34 21.75, 26.08 6.91, 31.89 -0.1 M-0.26 36.88 C10.12 24.82, 19.95 12.99, 31.89 -0.1 M0.14 42.52 C8.36 32.42, 16.86 23.04, 36.88 0.26 M0.14 42.52 C10.64 30.73, 21.76 18.52, 36.88 0.26 M3.16 45.14 C12.1 35.45, 22.54 24.2, 36.62 6.65 M3.16 45.14 C10.86 36, 19.11 27.65, 36.62 6.65 M8.8 44.75 C15.98 36.27, 22.7 27.21, 37.01 12.3 M8.8 44.75 C17.74 33.64, 28.04 23.09, 37.01 12.3 M13.79 45.11 C20.34 36.93, 26.62 30.11, 36.75 18.7 M13.79 45.11 C19.28 39.04, 25.05 32.8, 36.75 18.7 M18.77 45.47 C24.78 39.81, 28.81 32.95, 37.14 24.34 M18.77 45.47 C26.09 36.64, 33.23 29.05, 37.14 24.34 M24.42 45.08 C28.32 39.74, 33.15 35.17, 36.88 30.74 M24.42 45.08 C27.1 41.39, 30.12 38.48, 36.88 30.74 M29.4 45.44 C31.93 43.03, 33.18 40.31, 36.62 37.13 M29.4 45.44 C30.92 43.58, 33.11 41.17, 36.62 37.13 M35.05 45.04 C35.85 44.07, 36.7 43.42, 37.02 42.78 M35.05 45.04 C35.62 44.39, 36.18 43.86, 37.02 42.78" stroke="#000000" stroke-width="0.5" fill="none"></path><path d="M0 0 C14.98 -0.58, 28.15 0.8, 36.72 0 M0 0 C11.09 -0.55, 21.86 -0.44, 36.72 0 M36.72 0 C35.78 9.97, 36.87 20.01, 36.72 44.62 M36.72 0 C36.46 12.17, 36.69 24.26, 36.72 44.62 M36.72 44.62 C25.58 45.1, 15.22 44.98, 0 44.62 M36.72 44.62 C26.98 44.68, 17.01 44.49, 0 44.62 M0 44.62 C0.61 31.84, 0.33 18.62, 0 0 M0 44.62 C0 27.51, -0.6 11.16, 0 0" stroke="#000000" stroke-width="1" fill="none"></path></g><g stroke-linecap="round" transform="translate(45.63350694106487 57.14367905084168) rotate(353.23161292112655 5.1983348234177384 3.1800624513224847)"><path d="M4.26 -0.24 C5.18 -0.36, 6.4 0.21, 7.45 0.58 C8.5 0.96, 10.11 1.45, 10.59 2.02 C11.06 2.59, 10.75 3.37, 10.3 4 C9.84 4.63, 8.88 5.46, 7.84 5.81 C6.81 6.16, 5.24 6.27, 4.09 6.08 C2.94 5.9, 1.7 5.15, 0.95 4.7 C0.2 4.25, -0.37 4.01, -0.4 3.4 C-0.43 2.8, -0.07 1.67, 0.78 1.07 C1.63 0.47, 3.97 0.02, 4.71 -0.22 C5.45 -0.45, 5.28 -0.38, 5.21 -0.34 M6.35 -0.24 C7.39 -0.12, 8.71 0.29, 9.27 1 C9.84 1.72, 9.92 3.21, 9.76 4.04 C9.6 4.87, 8.97 5.72, 8.32 5.99 C7.67 6.27, 6.8 5.76, 5.84 5.69 C4.87 5.63, 3.58 5.81, 2.54 5.61 C1.5 5.41, -0.09 5.13, -0.39 4.48 C-0.7 3.83, 0.08 2.47, 0.7 1.7 C1.32 0.92, 2.25 0.17, 3.32 -0.17 C4.39 -0.51, 6.64 -0.4, 7.12 -0.36 C7.61 -0.33, 6.39 -0.14, 6.26 0.03" stroke="none" stroke-width="0" fill="#ffffff"></path><path d="M6.44 0.3 C7.42 0.44, 8.18 0.92, 8.78 1.35 C9.38 1.78, 10.02 2.24, 10.04 2.88 C10.05 3.52, 9.62 4.62, 8.88 5.19 C8.13 5.76, 6.61 6.17, 5.56 6.27 C4.52 6.38, 3.53 6.21, 2.62 5.83 C1.71 5.45, 0.57 4.67, 0.11 4.01 C-0.35 3.34, -0.61 2.44, -0.14 1.85 C0.33 1.25, 1.79 0.75, 2.92 0.44 C4.06 0.13, 6.17 0.08, 6.67 -0.01 C7.18 -0.1, 6.08 -0.21, 5.94 -0.1 M3.96 0.69 C4.94 0.57, 6.9 0.13, 7.87 0.3 C8.85 0.46, 9.47 0.93, 9.81 1.69 C10.16 2.45, 10.34 4.05, 9.94 4.85 C9.54 5.66, 8.37 6.23, 7.4 6.53 C6.44 6.84, 5.26 6.81, 4.14 6.68 C3.01 6.55, 1.24 6.32, 0.63 5.75 C0.01 5.18, 0.33 4.14, 0.46 3.26 C0.6 2.38, 0.92 1.03, 1.45 0.47 C1.99 -0.09, 3.24 -0.03, 3.66 -0.11 C4.09 -0.19, 3.79 -0.16, 4.01 -0.01" stroke="#000000" stroke-width="1" fill="none"></path></g><g stroke-linecap="round" transform="translate(27.205459496170654 57.3198577808551) rotate(353.23161292112655 5.1983348234177384 3.126439667147709)"><path d="M4.66 0.14 C5.82 0.11, 7.94 0.23, 8.92 0.57 C9.89 0.91, 10.37 1.55, 10.53 2.2 C10.68 2.85, 10.46 3.87, 9.86 4.48 C9.27 5.08, 8.05 5.63, 6.95 5.81 C5.86 6, 4.42 5.73, 3.32 5.6 C2.22 5.46, 0.99 5.51, 0.37 5.02 C-0.26 4.52, -0.67 3.37, -0.42 2.62 C-0.16 1.88, 0.88 1.05, 1.89 0.55 C2.91 0.04, 5.14 -0.28, 5.67 -0.42 C6.21 -0.56, 5.1 -0.41, 5.11 -0.3 M4.57 -0.26 C5.52 -0.2, 6.66 0.69, 7.48 1.22 C8.31 1.74, 9.12 2.48, 9.54 2.9 C9.95 3.32, 10.29 3.29, 9.98 3.76 C9.67 4.23, 8.78 5.24, 7.67 5.71 C6.55 6.17, 4.38 6.71, 3.32 6.55 C2.25 6.39, 1.74 5.43, 1.26 4.74 C0.79 4.04, 0.32 3.1, 0.47 2.39 C0.63 1.69, 1.51 0.92, 2.19 0.5 C2.87 0.09, 4.13 -0.07, 4.55 -0.1 C4.97 -0.12, 4.71 0.23, 4.72 0.35" stroke="none" stroke-width="0" fill="#ffffff"></path><path d="M4.2 0.17 C5.14 -0.04, 6.79 -0.17, 7.76 0.17 C8.72 0.5, 9.68 1.48, 9.97 2.18 C10.27 2.88, 9.92 3.74, 9.52 4.36 C9.13 4.97, 8.55 5.6, 7.59 5.87 C6.63 6.14, 4.95 6.15, 3.77 5.97 C2.58 5.79, 1.08 5.28, 0.49 4.78 C-0.1 4.28, 0.01 3.6, 0.24 2.95 C0.46 2.3, 1.12 1.4, 1.83 0.87 C2.53 0.34, 3.97 -0.16, 4.47 -0.24 C4.97 -0.33, 4.79 0.22, 4.81 0.35 M4.78 -0.13 C5.85 -0.41, 7.01 -0.37, 7.9 0.13 C8.78 0.64, 9.82 2.06, 10.09 2.88 C10.37 3.69, 10.03 4.46, 9.56 5.04 C9.09 5.61, 8.33 6.06, 7.28 6.34 C6.24 6.61, 4.27 6.92, 3.29 6.7 C2.31 6.48, 1.91 5.78, 1.4 5.03 C0.89 4.28, 0.32 2.92, 0.22 2.2 C0.13 1.49, 0.15 1.15, 0.84 0.76 C1.54 0.38, 3.65 -0.06, 4.39 -0.1 C5.13 -0.14, 5.28 0.34, 5.28 0.51" stroke="#000000" stroke-width="1" fill="none"></path></g><g stroke-linecap="round" transform="translate(36.68172422203987 9.999975670188917) rotate(359.66053689868505 4.8270251931735295 5.569644453661862)"><path d="M1.97 0.39 C1.97 0.39, 1.97 0.39, 1.97 0.39 M1.97 0.39 C1.97 0.39, 1.97 0.39, 1.97 0.39 M1.05 7.54 C1.84 6.12, 3.58 4.58, 6.96 0.75 M1.05 7.54 C3.17 5.19, 5.56 2.3, 6.96 0.75 M3.42 10.92 C5 8.55, 7.31 6.54, 9.32 4.13 M3.42 10.92 C5.74 8.27, 7.76 5.85, 9.32 4.13" stroke="#000000" stroke-width="0.5" fill="none"></path><path d="M5.03 -0.33 C6.06 -0.31, 7.42 0.74, 8.12 1.66 C8.81 2.59, 9.11 4.01, 9.23 5.2 C9.34 6.4, 9.4 7.9, 8.82 8.83 C8.24 9.77, 6.88 10.54, 5.77 10.8 C4.66 11.06, 3.02 10.86, 2.16 10.37 C1.3 9.87, 0.88 8.9, 0.61 7.82 C0.35 6.74, 0.38 5.08, 0.57 3.88 C0.75 2.69, 0.95 1.25, 1.73 0.66 C2.51 0.08, 4.62 0.4, 5.23 0.36 C5.85 0.32, 5.42 0.45, 5.44 0.45 M5.58 -0.3 C6.52 -0.01, 7.91 1.61, 8.53 2.73 C9.15 3.84, 9.34 5.23, 9.3 6.39 C9.26 7.55, 9.01 8.83, 8.28 9.7 C7.55 10.58, 5.84 11.53, 4.91 11.64 C3.98 11.76, 3.45 11.22, 2.7 10.38 C1.95 9.54, 0.93 7.79, 0.43 6.61 C-0.08 5.42, -0.62 4.31, -0.32 3.29 C-0.02 2.28, 1.12 0.98, 2.23 0.52 C3.35 0.07, 5.85 0.51, 6.39 0.56 C6.92 0.61, 5.6 0.72, 5.42 0.81" stroke="#000000" stroke-width="1" fill="none"></path></g><g stroke-linecap="round"><g transform="translate(66.0849760408064 104.14440773356574) rotate(6.1993333318538895 7.844068382132402 -27.22451645058983)"><path d="M0.56 -1.13 C3.69 -5.96, 18.86 -19.45, 18.25 -28.43 C17.64 -37.41, 0.36 -50.49, -3.09 -54.99 M-0.6 0.89 C2.44 -3.86, 17.51 -18.2, 17.5 -27.35 C17.49 -36.49, 2.64 -49.37, -0.66 -53.96" stroke="#000000" stroke-width="1" fill="none"></path></g></g><mask></mask><g stroke-linecap="round"><g transform="translate(17.916714069998882 104.54288691960915) rotate(353.2997217436242 -3.239880341645712 -24.52128798132183)"><path d="M0.17 -0.4 C-1.17 -4.49, -7.9 -16.89, -7.8 -25.08 C-7.69 -33.26, -0.63 -45.53, 0.81 -49.5 M-0.41 0.59 C-1.6 -3.39, -6.91 -16.22, -6.77 -24.51 C-6.64 -32.79, -0.88 -45.17, 0.41 -49.14" stroke="#000000" stroke-width="1" fill="none"></path></g></g><mask></mask><g stroke-linecap="round"><g transform="translate(28.293889401421445 74.74870071174757) rotate(0 11.343509203958043 3.57199864294833)" fill-rule="evenodd"><path d="M0.27 0.96 L22.47 -0.11 L21.41 7.92 L-0.29 -0.3" stroke="none" stroke-width="0" fill="#ffffff" fill-rule="evenodd"></path><path d="M0 0 C7.05 -0.29, 14.17 -0.4, 22.69 -0.58 M0 0 C7.18 -0.65, 14.57 -0.12, 22.69 -0.58 M22.69 -0.58 C22.13 1.79, 22 4.81, 22.01 7.72 M22.69 -0.58 C22.44 1.55, 22.4 3.27, 22.01 7.72 M22.01 7.72 C17.02 5.22, 11.3 3.52, 0 0 M22.01 7.72 C14.65 5.18, 6.77 1.97, 0 0 M0 0 C0 0, 0 0, 0 0 M0 0 C0 0, 0 0, 0 0" stroke="#000000" stroke-width="1" fill="none"></path></g></g><mask></mask><g stroke-linecap="round"><g transform="translate(38.37009954158351 43.84416088495726) rotate(0 0.0965405038634386 -11.633130715548361)"><path d="M0 0 C-1.42 -3.35, -1.44 -6.64, -3.67 -14.48 M0 0 C-1.09 -3.73, -1.9 -7.51, -3.67 -14.48 M-3.67 -14.48 C-1.85 -13.12, 0.31 -12.08, 3.86 -10.62 M-3.67 -14.48 C-1.67 -13.53, 0.24 -12.58, 3.86 -10.62 M3.86 -10.62 C3.82 -14.3, 3.15 -18.26, 2.12 -23.27 M3.86 -10.62 C3.26 -15.62, 2.23 -20.14, 2.12 -23.27" stroke="#000000" stroke-width="1" fill="none"></path></g></g><mask></mask><g stroke-linecap="round" transform="translate(49.66695148238171 58.42205167778627) rotate(0 0.7280156764769679 1.2369405613098348)"><path d="M1.46 1.24 C1.46 1.31, 1.45 1.38, 1.44 1.45 C1.44 1.52, 1.43 1.59, 1.41 1.66 C1.4 1.73, 1.38 1.79, 1.36 1.86 C1.34 1.92, 1.31 1.98, 1.29 2.03 C1.26 2.09, 1.23 2.14, 1.2 2.18 C1.16 2.23, 1.13 2.27, 1.09 2.31 C1.06 2.34, 1.02 2.37, 0.98 2.4 C0.94 2.42, 0.9 2.44, 0.85 2.46 C0.81 2.47, 0.77 2.47, 0.73 2.47 C0.69 2.47, 0.64 2.47, 0.6 2.46 C0.56 2.44, 0.52 2.42, 0.48 2.4 C0.44 2.37, 0.4 2.34, 0.36 2.31 C0.33 2.27, 0.29 2.23, 0.26 2.18 C0.23 2.14, 0.2 2.09, 0.17 2.03 C0.14 1.98, 0.12 1.92, 0.1 1.86 C0.08 1.79, 0.06 1.73, 0.04 1.66 C0.03 1.59, 0.02 1.52, 0.01 1.45 C0 1.38, 0 1.31, 0 1.24 C0 1.17, 0 1.09, 0.01 1.02 C0.02 0.95, 0.03 0.88, 0.04 0.81 C0.06 0.75, 0.08 0.68, 0.1 0.62 C0.12 0.56, 0.14 0.5, 0.17 0.44 C0.2 0.39, 0.23 0.34, 0.26 0.29 C0.29 0.24, 0.33 0.2, 0.36 0.17 C0.4 0.13, 0.44 0.1, 0.48 0.07 C0.52 0.05, 0.56 0.03, 0.6 0.02 C0.64 0.01, 0.69 0, 0.73 0 C0.77 0, 0.81 0.01, 0.85 0.02 C0.9 0.03, 0.94 0.05, 0.98 0.07 C1.02 0.1, 1.06 0.13, 1.09 0.17 C1.13 0.2, 1.16 0.24, 1.2 0.29 C1.23 0.34, 1.26 0.39, 1.29 0.44 C1.31 0.5, 1.34 0.56, 1.36 0.62 C1.38 0.68, 1.4 0.75, 1.41 0.81 C1.43 0.88, 1.44 0.95, 1.44 1.02 C1.45 1.09, 1.45 1.2, 1.46 1.24 C1.46 1.27, 1.46 1.2, 1.46 1.24" stroke="none" stroke-width="0" fill="#000000"></path><path d="M1.46 1.24 C1.46 1.31, 1.45 1.38, 1.44 1.45 C1.44 1.52, 1.43 1.59, 1.41 1.66 C1.4 1.73, 1.38 1.79, 1.36 1.86 C1.34 1.92, 1.31 1.98, 1.29 2.03 C1.26 2.09, 1.23 2.14, 1.2 2.18 C1.16 2.23, 1.13 2.27, 1.09 2.31 C1.06 2.34, 1.02 2.37, 0.98 2.4 C0.94 2.42, 0.9 2.44, 0.85 2.46 C0.81 2.47, 0.77 2.47, 0.73 2.47 C0.69 2.47, 0.64 2.47, 0.6 2.46 C0.56 2.44, 0.52 2.42, 0.48 2.4 C0.44 2.37, 0.4 2.34, 0.36 2.31 C0.33 2.27, 0.29 2.23, 0.26 2.18 C0.23 2.14, 0.2 2.09, 0.17 2.03 C0.14 1.98, 0.12 1.92, 0.1 1.86 C0.08 1.79, 0.06 1.73, 0.04 1.66 C0.03 1.59, 0.02 1.52, 0.01 1.45 C0 1.38, 0 1.31, 0 1.24 C0 1.17, 0 1.09, 0.01 1.02 C0.02 0.95, 0.03 0.88, 0.04 0.81 C0.06 0.75, 0.08 0.68, 0.1 0.62 C0.12 0.56, 0.14 0.5, 0.17 0.44 C0.2 0.39, 0.23 0.34, 0.26 0.29 C0.29 0.24, 0.33 0.2, 0.36 0.17 C0.4 0.13, 0.44 0.1, 0.48 0.07 C0.52 0.05, 0.56 0.03, 0.6 0.02 C0.64 0.01, 0.69 0, 0.73 0 C0.77 0, 0.81 0.01, 0.85 0.02 C0.9 0.03, 0.94 0.05, 0.98 0.07 C1.02 0.1, 1.06 0.13, 1.09 0.17 C1.13 0.2, 1.16 0.24, 1.2 0.29 C1.23 0.34, 1.26 0.39, 1.29 0.44 C1.31 0.5, 1.34 0.56, 1.36 0.62 C1.38 0.68, 1.4 0.75, 1.41 0.81 C1.43 0.88, 1.44 0.95, 1.44 1.02 C1.45 1.09, 1.45 1.2, 1.46 1.24 C1.46 1.27, 1.46 1.2, 1.46 1.24" stroke="#000000" stroke-width="1" fill="none"></path></g><g stroke-linecap="round" transform="translate(32.094253965909395 57.53454170220709) rotate(0 0.7280156764769679 1.2369405613098348)"><path d="M1.46 1.24 C1.46 1.31, 1.45 1.38, 1.44 1.45 C1.44 1.52, 1.43 1.59, 1.41 1.66 C1.4 1.73, 1.38 1.79, 1.36 1.86 C1.34 1.92, 1.31 1.98, 1.29 2.03 C1.26 2.09, 1.23 2.14, 1.2 2.18 C1.16 2.23, 1.13 2.27, 1.09 2.31 C1.06 2.34, 1.02 2.37, 0.98 2.4 C0.94 2.42, 0.9 2.44, 0.85 2.46 C0.81 2.47, 0.77 2.47, 0.73 2.47 C0.69 2.47, 0.64 2.47, 0.6 2.46 C0.56 2.44, 0.52 2.42, 0.48 2.4 C0.44 2.37, 0.4 2.34, 0.36 2.31 C0.33 2.27, 0.29 2.23, 0.26 2.18 C0.23 2.14, 0.2 2.09, 0.17 2.03 C0.14 1.98, 0.12 1.92, 0.1 1.86 C0.08 1.79, 0.06 1.73, 0.04 1.66 C0.03 1.59, 0.02 1.52, 0.01 1.45 C0 1.38, 0 1.31, 0 1.24 C0 1.17, 0 1.09, 0.01 1.02 C0.02 0.95, 0.03 0.88, 0.04 0.81 C0.06 0.75, 0.08 0.68, 0.1 0.62 C0.12 0.56, 0.14 0.5, 0.17 0.44 C0.2 0.39, 0.23 0.34, 0.26 0.29 C0.29 0.24, 0.33 0.2, 0.36 0.17 C0.4 0.13, 0.44 0.1, 0.48 0.07 C0.52 0.05, 0.56 0.03, 0.6 0.02 C0.64 0.01, 0.69 0, 0.73 0 C0.77 0, 0.81 0.01, 0.85 0.02 C0.9 0.03, 0.94 0.05, 0.98 0.07 C1.02 0.1, 1.06 0.13, 1.09 0.17 C1.13 0.2, 1.16 0.24, 1.2 0.29 C1.23 0.34, 1.26 0.39, 1.29 0.44 C1.31 0.5, 1.34 0.56, 1.36 0.62 C1.38 0.68, 1.4 0.75, 1.41 0.81 C1.43 0.88, 1.44 0.95, 1.44 1.02 C1.45 1.09, 1.45 1.2, 1.46 1.24 C1.46 1.27, 1.46 1.2, 1.46 1.24" stroke="none" stroke-width="0" fill="#000000"></path><path d="M1.46 1.24 C1.46 1.31, 1.45 1.38, 1.44 1.45 C1.44 1.52, 1.43 1.59, 1.41 1.66 C1.4 1.73, 1.38 1.79, 1.36 1.86 C1.34 1.92, 1.31 1.98, 1.29 2.03 C1.26 2.09, 1.23 2.14, 1.2 2.18 C1.16 2.23, 1.13 2.27, 1.09 2.31 C1.06 2.34, 1.02 2.37, 0.98 2.4 C0.94 2.42, 0.9 2.44, 0.85 2.46 C0.81 2.47, 0.77 2.47, 0.73 2.47 C0.69 2.47, 0.64 2.47, 0.6 2.46 C0.56 2.44, 0.52 2.42, 0.48 2.4 C0.44 2.37, 0.4 2.34, 0.36 2.31 C0.33 2.27, 0.29 2.23, 0.26 2.18 C0.23 2.14, 0.2 2.09, 0.17 2.03 C0.14 1.98, 0.12 1.92, 0.1 1.86 C0.08 1.79, 0.06 1.73, 0.04 1.66 C0.03 1.59, 0.02 1.52, 0.01 1.45 C0 1.38, 0 1.31, 0 1.24 C0 1.17, 0 1.09, 0.01 1.02 C0.02 0.95, 0.03 0.88, 0.04 0.81 C0.06 0.75, 0.08 0.68, 0.1 0.62 C0.12 0.56, 0.14 0.5, 0.17 0.44 C0.2 0.39, 0.23 0.34, 0.26 0.29 C0.29 0.24, 0.33 0.2, 0.36 0.17 C0.4 0.13, 0.44 0.1, 0.48 0.07 C0.52 0.05, 0.56 0.03, 0.6 0.02 C0.64 0.01, 0.69 0, 0.73 0 C0.77 0, 0.81 0.01, 0.85 0.02 C0.9 0.03, 0.94 0.05, 0.98 0.07 C1.02 0.1, 1.06 0.13, 1.09 0.17 C1.13 0.2, 1.16 0.24, 1.2 0.29 C1.23 0.34, 1.26 0.39, 1.29 0.44 C1.31 0.5, 1.34 0.56, 1.36 0.62 C1.38 0.68, 1.4 0.75, 1.41 0.81 C1.43 0.88, 1.44 0.95, 1.44 1.02 C1.45 1.09, 1.45 1.2, 1.46 1.24 C1.46 1.27, 1.46 1.2, 1.46 1.24" stroke="#000000" stroke-width="1" fill="none"></path></g></svg>