<svg version="1.1" xmlns="http://www.w3.org/2000/svg" viewBox="0 0 220.91324200913255 220" width="220.91324200913255" height="220" class="excalidraw-svg"><!-- svg-source:excalidraw --><metadata></metadata><defs><style class="style-fonts">
      </style></defs><g stroke-linecap="round" transform="translate(10 10) rotate(0 100.45662100456627 68.94977168949777)"><path d="M200.91 68.95 C200.91 71.35, 200.73 73.77, 200.36 76.16 C200 78.55, 199.45 80.94, 198.72 83.29 C197.99 85.64, 197.08 87.97, 196 90.26 C194.91 92.54, 193.65 94.8, 192.23 96.99 C190.8 99.19, 189.2 101.34, 187.45 103.42 C185.7 105.51, 183.79 107.53, 181.73 109.48 C179.67 111.42, 177.45 113.3, 175.11 115.09 C172.77 116.87, 170.28 118.58, 167.68 120.19 C165.07 121.8, 162.34 123.32, 159.5 124.73 C156.67 126.14, 153.72 127.46, 150.68 128.66 C147.65 129.86, 144.51 130.96, 141.32 131.94 C138.12 132.92, 134.83 133.78, 131.5 134.52 C128.17 135.27, 124.77 135.89, 121.34 136.39 C117.92 136.89, 114.44 137.27, 110.96 137.52 C107.48 137.77, 103.96 137.9, 100.46 137.9 C96.96 137.9, 93.44 137.77, 89.96 137.52 C86.48 137.27, 82.99 136.89, 79.57 136.39 C76.15 135.89, 72.74 135.27, 69.41 134.52 C66.08 133.78, 62.79 132.92, 59.6 131.94 C56.4 130.96, 53.26 129.86, 50.23 128.66 C47.2 127.46, 44.24 126.14, 41.41 124.73 C38.58 123.32, 35.84 121.8, 33.24 120.19 C30.64 118.58, 28.14 116.87, 25.8 115.09 C23.46 113.3, 21.24 111.42, 19.19 109.48 C17.13 107.53, 15.21 105.51, 13.46 103.42 C11.71 101.34, 10.11 99.19, 8.68 96.99 C7.26 94.8, 6 92.54, 4.92 90.26 C3.84 87.97, 2.92 85.64, 2.2 83.29 C1.47 80.94, 0.92 78.55, 0.55 76.16 C0.18 73.77, 0 71.35, 0 68.95 C0 66.55, 0.18 64.13, 0.55 61.74 C0.92 59.35, 1.47 56.96, 2.2 54.61 C2.92 52.26, 3.84 49.93, 4.92 47.64 C6 45.36, 7.26 43.1, 8.68 40.91 C10.11 38.71, 11.71 36.56, 13.46 34.47 C15.21 32.39, 17.13 30.37, 19.19 28.42 C21.24 26.48, 23.46 24.6, 25.8 22.81 C28.14 21.03, 30.64 19.32, 33.24 17.71 C35.84 16.1, 38.58 14.58, 41.41 13.17 C44.24 11.76, 47.2 10.44, 50.23 9.24 C53.26 8.04, 56.4 6.94, 59.6 5.96 C62.79 4.98, 66.08 4.12, 69.41 3.37 C72.74 2.63, 76.15 2.01, 79.57 1.51 C82.99 1.01, 86.48 0.63, 89.96 0.38 C93.44 0.13, 96.96 0, 100.46 0 C103.96 0, 107.48 0.13, 110.96 0.38 C114.44 0.63, 117.92 1.01, 121.34 1.51 C124.77 2.01, 128.17 2.63, 131.5 3.37 C134.83 4.12, 138.12 4.98, 141.32 5.96 C144.51 6.94, 147.65 8.04, 150.68 9.24 C153.72 10.44, 156.67 11.76, 159.5 13.17 C162.34 14.58, 165.07 16.1, 167.68 17.71 C170.28 19.32, 172.77 21.03, 175.11 22.81 C177.45 24.6, 179.67 26.48, 181.73 28.42 C183.79 30.37, 185.7 32.39, 187.45 34.47 C189.2 36.56, 190.8 38.71, 192.23 40.91 C193.65 43.1, 194.91 45.36, 196 47.64 C197.08 49.93, 197.99 52.26, 198.72 54.61 C199.45 56.96, 200 59.35, 200.36 61.74 C200.73 64.13, 200.82 67.75, 200.91 68.95 C201 70.15, 201 67.75, 200.91 68.95" stroke="none" stroke-width="0" fill="#b2b4b8"></path><path d="M200.91 68.95 C200.91 71.35, 200.73 73.77, 200.36 76.16 C200 78.55, 199.45 80.94, 198.72 83.29 C197.99 85.64, 197.08 87.97, 196 90.26 C194.91 92.54, 193.65 94.8, 192.23 96.99 C190.8 99.19, 189.2 101.34, 187.45 103.42 C185.7 105.51, 183.79 107.53, 181.73 109.48 C179.67 111.42, 177.45 113.3, 175.11 115.09 C172.77 116.87, 170.28 118.58, 167.68 120.19 C165.07 121.8, 162.34 123.32, 159.5 124.73 C156.67 126.14, 153.72 127.46, 150.68 128.66 C147.65 129.86, 144.51 130.96, 141.32 131.94 C138.12 132.92, 134.83 133.78, 131.5 134.52 C128.17 135.27, 124.77 135.89, 121.34 136.39 C117.92 136.89, 114.44 137.27, 110.96 137.52 C107.48 137.77, 103.96 137.9, 100.46 137.9 C96.96 137.9, 93.44 137.77, 89.96 137.52 C86.48 137.27, 82.99 136.89, 79.57 136.39 C76.15 135.89, 72.74 135.27, 69.41 134.52 C66.08 133.78, 62.79 132.92, 59.6 131.94 C56.4 130.96, 53.26 129.86, 50.23 128.66 C47.2 127.46, 44.24 126.14, 41.41 124.73 C38.58 123.32, 35.84 121.8, 33.24 120.19 C30.64 118.58, 28.14 116.87, 25.8 115.09 C23.46 113.3, 21.24 111.42, 19.19 109.48 C17.13 107.53, 15.21 105.51, 13.46 103.42 C11.71 101.34, 10.11 99.19, 8.68 96.99 C7.26 94.8, 6 92.54, 4.92 90.26 C3.84 87.97, 2.92 85.64, 2.2 83.29 C1.47 80.94, 0.92 78.55, 0.55 76.16 C0.18 73.77, 0 71.35, 0 68.95 C0 66.55, 0.18 64.13, 0.55 61.74 C0.92 59.35, 1.47 56.96, 2.2 54.61 C2.92 52.26, 3.84 49.93, 4.92 47.64 C6 45.36, 7.26 43.1, 8.68 40.91 C10.11 38.71, 11.71 36.56, 13.46 34.47 C15.21 32.39, 17.13 30.37, 19.19 28.42 C21.24 26.48, 23.46 24.6, 25.8 22.81 C28.14 21.03, 30.64 19.32, 33.24 17.71 C35.84 16.1, 38.58 14.58, 41.41 13.17 C44.24 11.76, 47.2 10.44, 50.23 9.24 C53.26 8.04, 56.4 6.94, 59.6 5.96 C62.79 4.98, 66.08 4.12, 69.41 3.37 C72.74 2.63, 76.15 2.01, 79.57 1.51 C82.99 1.01, 86.48 0.63, 89.96 0.38 C93.44 0.13, 96.96 0, 100.46 0 C103.96 0, 107.48 0.13, 110.96 0.38 C114.44 0.63, 117.92 1.01, 121.34 1.51 C124.77 2.01, 128.17 2.63, 131.5 3.37 C134.83 4.12, 138.12 4.98, 141.32 5.96 C144.51 6.94, 147.65 8.04, 150.68 9.24 C153.72 10.44, 156.67 11.76, 159.5 13.17 C162.34 14.58, 165.07 16.1, 167.68 17.71 C170.28 19.32, 172.77 21.03, 175.11 22.81 C177.45 24.6, 179.67 26.48, 181.73 28.42 C183.79 30.37, 185.7 32.39, 187.45 34.47 C189.2 36.56, 190.8 38.71, 192.23 40.91 C193.65 43.1, 194.91 45.36, 196 47.64 C197.08 49.93, 197.99 52.26, 198.72 54.61 C199.45 56.96, 200 59.35, 200.36 61.74 C200.73 64.13, 200.82 67.75, 200.91 68.95 C201 70.15, 201 67.75, 200.91 68.95" stroke="#fff" stroke-width="1" fill="none"></path></g><g stroke-linecap="round" transform="translate(52.00913242009142 29.17808219178073) rotate(0 74.42922374429227 51.141552511415554)"><path d="M148.86 51.14 C148.86 53.2, 148.68 55.27, 148.32 57.31 C147.96 59.35, 147.41 61.39, 146.7 63.38 C145.98 65.38, 145.08 67.36, 144.02 69.28 C142.96 71.2, 141.72 73.09, 140.33 74.91 C138.94 76.73, 137.38 78.5, 135.68 80.19 C133.98 81.88, 132.12 83.52, 130.14 85.05 C128.16 86.59, 126.02 88.06, 123.78 89.42 C121.55 90.78, 119.17 92.06, 116.71 93.23 C114.25 94.4, 111.67 95.47, 109.02 96.43 C106.37 97.38, 103.62 98.23, 100.82 98.96 C98.03 99.69, 95.14 100.31, 92.24 100.8 C89.34 101.29, 86.37 101.66, 83.4 101.91 C80.43 102.16, 77.42 102.28, 74.43 102.28 C71.44 102.28, 68.43 102.16, 65.46 101.91 C62.49 101.66, 59.52 101.29, 56.62 100.8 C53.71 100.31, 50.83 99.69, 48.04 98.96 C45.24 98.23, 42.49 97.38, 39.84 96.43 C37.19 95.47, 34.61 94.4, 32.15 93.23 C29.69 92.06, 27.31 90.78, 25.07 89.42 C22.84 88.06, 20.7 86.59, 18.72 85.05 C16.74 83.52, 14.87 81.88, 13.18 80.19 C11.48 78.5, 9.92 76.73, 8.53 74.91 C7.14 73.09, 5.9 71.2, 4.84 69.28 C3.78 67.36, 2.88 65.38, 2.16 63.38 C1.45 61.39, 0.9 59.35, 0.54 57.31 C0.18 55.27, 0 53.2, 0 51.14 C0 49.09, 0.18 47.02, 0.54 44.98 C0.9 42.94, 1.45 40.9, 2.16 38.9 C2.88 36.91, 3.78 34.93, 4.84 33.01 C5.9 31.09, 7.14 29.19, 8.53 27.37 C9.92 25.56, 11.48 23.78, 13.18 22.09 C14.87 20.4, 16.74 18.77, 18.72 17.23 C20.7 15.69, 22.84 14.22, 25.07 12.86 C27.31 11.5, 29.69 10.22, 32.15 9.05 C34.61 7.89, 37.19 6.81, 39.84 5.86 C42.49 4.9, 45.24 4.05, 48.04 3.32 C50.83 2.59, 53.71 1.98, 56.62 1.49 C59.52 0.99, 62.49 0.62, 65.46 0.37 C68.43 0.13, 71.44 0, 74.43 0 C77.42 0, 80.43 0.13, 83.4 0.37 C86.37 0.62, 89.34 0.99, 92.24 1.49 C95.14 1.98, 98.03 2.59, 100.82 3.32 C103.62 4.05, 106.37 4.9, 109.02 5.86 C111.67 6.81, 114.25 7.89, 116.71 9.05 C119.17 10.22, 121.55 11.5, 123.78 12.86 C126.02 14.22, 128.16 15.69, 130.14 17.23 C132.12 18.77, 133.98 20.4, 135.68 22.09 C137.38 23.78, 138.94 25.56, 140.33 27.37 C141.72 29.19, 142.96 31.09, 144.02 33.01 C145.08 34.93, 145.98 36.91, 146.7 38.9 C147.41 40.9, 147.96 42.94, 148.32 44.98 C148.68 47.02, 148.86 49.09, 148.86 51.14" stroke="none" stroke-width="0" fill="#fff"></path><path d="M148.86 51.14 C148.86 53.2, 148.68 55.27, 148.32 57.31 C147.96 59.35, 147.41 61.39, 146.7 63.38 C145.98 65.38, 145.08 67.36, 144.02 69.28 C142.96 71.2, 141.72 73.09, 140.33 74.91 C138.94 76.73, 137.38 78.5, 135.68 80.19 C133.98 81.88, 132.12 83.52, 130.14 85.05 C128.16 86.59, 126.02 88.06, 123.78 89.42 C121.55 90.78, 119.17 92.06, 116.71 93.23 C114.25 94.4, 111.67 95.47, 109.02 96.43 C106.37 97.38, 103.62 98.23, 100.82 98.96 C98.03 99.69, 95.14 100.31, 92.24 100.8 C89.34 101.29, 86.37 101.66, 83.4 101.91 C80.43 102.16, 77.42 102.28, 74.43 102.28 C71.44 102.28, 68.43 102.16, 65.46 101.91 C62.49 101.66, 59.52 101.29, 56.62 100.8 C53.71 100.31, 50.83 99.69, 48.04 98.96 C45.24 98.23, 42.49 97.38, 39.84 96.43 C37.19 95.47, 34.61 94.4, 32.15 93.23 C29.69 92.06, 27.31 90.78, 25.07 89.42 C22.84 88.06, 20.7 86.59, 18.72 85.05 C16.74 83.52, 14.87 81.88, 13.18 80.19 C11.48 78.5, 9.92 76.73, 8.53 74.91 C7.14 73.09, 5.9 71.2, 4.84 69.28 C3.78 67.36, 2.88 65.38, 2.16 63.38 C1.45 61.39, 0.9 59.35, 0.54 57.31 C0.18 55.27, 0 53.2, 0 51.14 C0 49.09, 0.18 47.02, 0.54 44.98 C0.9 42.94, 1.45 40.9, 2.16 38.9 C2.88 36.91, 3.78 34.93, 4.84 33.01 C5.9 31.09, 7.14 29.19, 8.53 27.37 C9.92 25.56, 11.48 23.78, 13.18 22.09 C14.87 20.4, 16.74 18.77, 18.72 17.23 C20.7 15.69, 22.84 14.22, 25.07 12.86 C27.31 11.5, 29.69 10.22, 32.15 9.05 C34.61 7.89, 37.19 6.81, 39.84 5.86 C42.49 4.9, 45.24 4.05, 48.04 3.32 C50.83 2.59, 53.71 1.98, 56.62 1.49 C59.52 0.99, 62.49 0.62, 65.46 0.37 C68.43 0.13, 71.44 0, 74.43 0 C77.42 0, 80.43 0.13, 83.4 0.37 C86.37 0.62, 89.34 0.99, 92.24 1.49 C95.14 1.98, 98.03 2.59, 100.82 3.32 C103.62 4.05, 106.37 4.9, 109.02 5.86 C111.67 6.81, 114.25 7.89, 116.71 9.05 C119.17 10.22, 121.55 11.5, 123.78 12.86 C126.02 14.22, 128.16 15.69, 130.14 17.23 C132.12 18.77, 133.98 20.4, 135.68 22.09 C137.38 23.78, 138.94 25.56, 140.33 27.37 C141.72 29.19, 142.96 31.09, 144.02 33.01 C145.08 34.93, 145.98 36.91, 146.7 38.9 C147.41 40.9, 147.96 42.94, 148.32 44.98 C148.68 47.02, 148.86 49.09, 148.86 51.14" stroke="#fff" stroke-width="1" fill="none"></path></g><g transform="translate(79.40639269406392 17.30593607305923) rotate(0 60.273972602739754 96.34703196347039)"><text x="60.273972602739754" y="141.47358376141557" font-family="Helvetica, sans-serif, Segoe UI Emoji" font-size="167.1232876712328px" fill="#2066b8" text-anchor="middle" style="white-space: pre;" direction="ltr" dominant-baseline="alphabetic">R</text></g></svg>