<svg version="1.1" xmlns="http://www.w3.org/2000/svg" viewBox="0 0 343.33617793582744 240.88867540084237" width="343.33617793582744" height="240.88867540084237" class="excalidraw-svg"><!-- svg-source:excalidraw --><metadata></metadata><defs><style class="style-fonts">
      </style></defs><g stroke-linecap="round" transform="translate(12.009459591801772 10) rotate(0 39.86137184504606 40.185448038907914)"><path d="M79.72 40.19 C79.72 42.09, 79.59 44.02, 79.32 45.9 C79.05 47.79, 78.64 49.68, 78.11 51.51 C77.58 53.34, 76.91 55.15, 76.12 56.88 C75.34 58.61, 74.42 60.31, 73.39 61.91 C72.37 63.52, 71.22 65.06, 69.99 66.5 C68.75 67.94, 67.39 69.31, 65.97 70.56 C64.54 71.8, 63 72.96, 61.41 73.99 C59.82 75.02, 58.14 75.95, 56.42 76.74 C54.7 77.53, 52.91 78.21, 51.09 78.74 C49.28 79.28, 47.41 79.69, 45.53 79.96 C43.66 80.23, 41.75 80.37, 39.86 80.37 C37.97 80.37, 36.06 80.23, 34.19 79.96 C32.32 79.69, 30.45 79.28, 28.63 78.74 C26.82 78.21, 25.02 77.53, 23.3 76.74 C21.58 75.95, 19.9 75.02, 18.31 73.99 C16.72 72.96, 15.19 71.8, 13.76 70.56 C12.33 69.31, 10.97 67.94, 9.74 66.5 C8.5 65.06, 7.35 63.52, 6.33 61.91 C5.31 60.31, 4.39 58.61, 3.6 56.88 C2.82 55.15, 2.15 53.34, 1.61 51.51 C1.08 49.68, 0.67 47.79, 0.41 45.9 C0.14 44.02, 0 42.09, 0 40.19 C0 38.28, 0.14 36.35, 0.41 34.47 C0.67 32.58, 1.08 30.69, 1.61 28.86 C2.15 27.03, 2.82 25.23, 3.6 23.49 C4.39 21.76, 5.31 20.06, 6.33 18.46 C7.35 16.86, 8.5 15.31, 9.74 13.87 C10.97 12.43, 12.33 11.06, 13.76 9.82 C15.19 8.57, 16.72 7.41, 18.31 6.38 C19.9 5.35, 21.58 4.42, 23.3 3.63 C25.02 2.84, 26.82 2.16, 28.63 1.63 C30.45 1.09, 32.32 0.68, 34.19 0.41 C36.06 0.14, 37.97 0, 39.86 0 C41.75 0, 43.66 0.14, 45.53 0.41 C47.41 0.68, 49.28 1.09, 51.09 1.63 C52.91 2.16, 54.7 2.84, 56.42 3.63 C58.14 4.42, 59.82 5.35, 61.41 6.38 C63 7.41, 64.54 8.57, 65.97 9.82 C67.39 11.06, 68.75 12.43, 69.99 13.87 C71.22 15.31, 72.37 16.86, 73.39 18.46 C74.42 20.06, 75.34 21.76, 76.12 23.49 C76.91 25.23, 77.58 27.03, 78.11 28.86 C78.64 30.69, 79.05 32.58, 79.32 34.47 C79.59 36.35, 79.66 39.23, 79.72 40.19 C79.79 41.14, 79.79 39.23, 79.72 40.19" stroke="#343a40" stroke-width="2" fill="none"></path></g><g stroke-linecap="round" transform="translate(235.65313813768267 13.366679031873446) rotate(0 39.86137184504606 40.185448038907914)"><path d="M79.72 40.19 C79.72 42.09, 79.59 44.02, 79.32 45.9 C79.05 47.79, 78.64 49.68, 78.11 51.51 C77.58 53.34, 76.91 55.15, 76.12 56.88 C75.34 58.61, 74.42 60.31, 73.39 61.91 C72.37 63.52, 71.22 65.06, 69.99 66.5 C68.75 67.94, 67.39 69.31, 65.97 70.56 C64.54 71.8, 63 72.96, 61.41 73.99 C59.82 75.02, 58.14 75.95, 56.42 76.74 C54.7 77.53, 52.91 78.21, 51.09 78.74 C49.28 79.28, 47.41 79.69, 45.53 79.96 C43.66 80.23, 41.75 80.37, 39.86 80.37 C37.97 80.37, 36.06 80.23, 34.19 79.96 C32.32 79.69, 30.45 79.28, 28.63 78.74 C26.82 78.21, 25.02 77.53, 23.3 76.74 C21.58 75.95, 19.9 75.02, 18.31 73.99 C16.72 72.96, 15.19 71.8, 13.76 70.56 C12.33 69.31, 10.97 67.94, 9.74 66.5 C8.5 65.06, 7.35 63.52, 6.33 61.91 C5.31 60.31, 4.39 58.61, 3.6 56.88 C2.82 55.15, 2.15 53.34, 1.61 51.51 C1.08 49.68, 0.67 47.79, 0.41 45.9 C0.14 44.02, 0 42.09, 0 40.19 C0 38.28, 0.14 36.35, 0.41 34.47 C0.67 32.58, 1.08 30.69, 1.61 28.86 C2.15 27.03, 2.82 25.23, 3.6 23.49 C4.39 21.76, 5.31 20.06, 6.33 18.46 C7.35 16.86, 8.5 15.31, 9.74 13.87 C10.97 12.43, 12.33 11.06, 13.76 9.82 C15.19 8.57, 16.72 7.41, 18.31 6.38 C19.9 5.35, 21.58 4.42, 23.3 3.63 C25.02 2.84, 26.82 2.16, 28.63 1.63 C30.45 1.09, 32.32 0.68, 34.19 0.41 C36.06 0.14, 37.97 0, 39.86 0 C41.75 0, 43.66 0.14, 45.53 0.41 C47.41 0.68, 49.28 1.09, 51.09 1.63 C52.91 2.16, 54.7 2.84, 56.42 3.63 C58.14 4.42, 59.82 5.35, 61.41 6.38 C63 7.41, 64.54 8.57, 65.97 9.82 C67.39 11.06, 68.75 12.43, 69.99 13.87 C71.22 15.31, 72.37 16.86, 73.39 18.46 C74.42 20.06, 75.34 21.76, 76.12 23.49 C76.91 25.23, 77.58 27.03, 78.11 28.86 C78.64 30.69, 79.05 32.58, 79.32 34.47 C79.59 36.35, 79.66 39.23, 79.72 40.19 C79.79 41.14, 79.79 39.23, 79.72 40.19" stroke="#343a40" stroke-width="2" fill="none"></path></g><g stroke-linecap="round"><g transform="translate(30.393198505283692 90.57168100750278) rotate(0 32.9100497906893 9.352136451311026)"><path d="M0 0 C0.95 2.33, 2.8 9.75, 5.68 13.97 C8.56 18.19, 12.39 23.32, 17.28 25.33 C22.18 27.35, 29.24 27.82, 35.04 26.04 C40.84 24.27, 46.96 20.24, 52.09 14.68 C57.22 9.12, 63.53 -3.67, 65.82 -7.34 M0 0 C0.95 2.33, 2.8 9.75, 5.68 13.97 C8.56 18.19, 12.39 23.32, 17.28 25.33 C22.18 27.35, 29.24 27.82, 35.04 26.04 C40.84 24.27, 46.96 20.24, 52.09 14.68 C57.22 9.12, 63.53 -3.67, 65.82 -7.34" stroke="#343a40" stroke-width="2" fill="none"></path></g></g><mask></mask><g stroke-linecap="round"><g transform="translate(88.87364669449433 115.90531645788951) rotate(0 8.405084658773148 -14.205776888067362)"><path d="M0 0 C1.97 -1.74, 9.04 -5.68, 11.84 -10.42 C14.64 -15.15, 15.98 -25.41, 16.81 -28.41 M0 0 C1.97 -1.74, 9.04 -5.68, 11.84 -10.42 C14.64 -15.15, 15.98 -25.41, 16.81 -28.41" stroke="#343a40" stroke-width="2" fill="none"></path></g></g><mask></mask><g stroke-linecap="round"><g transform="translate(78.219314028444 83.94231845973809) rotate(0 -26.517450191059204 51.259178271109704)"><path d="M0 0 C1.14 3.39, 4.54 12.55, 6.87 20.36 C9.19 28.17, 12.59 36.66, 13.97 46.88 C15.35 57.1, 15.15 73.79, 15.15 81.68 C15.15 89.58, 16.34 91.27, 13.97 94.23 C11.6 97.19, 6.04 98.06, 0.95 99.44 C-4.14 100.82, -9.35 102.2, -16.57 102.52 C-23.79 102.83, -35.12 102.48, -42.38 101.33 C-49.64 100.19, -56.07 97.59, -60.14 95.65 C-64.2 93.72, -65.43 93.76, -66.77 89.73 C-68.11 85.71, -68.15 77.82, -68.19 71.5 C-68.23 65.19, -68.42 59.98, -67 51.85 C-65.58 43.72, -62.86 31.25, -59.66 22.73 C-56.47 14.21, -49.8 4.38, -47.83 0.71 M0 0 C1.14 3.39, 4.54 12.55, 6.87 20.36 C9.19 28.17, 12.59 36.66, 13.97 46.88 C15.35 57.1, 15.15 73.79, 15.15 81.68 C15.15 89.58, 16.34 91.27, 13.97 94.23 C11.6 97.19, 6.04 98.06, 0.95 99.44 C-4.14 100.82, -9.35 102.2, -16.57 102.52 C-23.79 102.83, -35.12 102.48, -42.38 101.33 C-49.64 100.19, -56.07 97.59, -60.14 95.65 C-64.2 93.72, -65.43 93.76, -66.77 89.73 C-68.11 85.71, -68.15 77.82, -68.19 71.5 C-68.23 65.19, -68.42 59.98, -67 51.85 C-65.58 43.72, -62.86 31.25, -59.66 22.73 C-56.47 14.21, -49.8 4.38, -47.83 0.71" stroke="#343a40" stroke-width="2" fill="none"></path></g></g><mask></mask><g stroke-linecap="round"><g transform="translate(47.91365666723375 56.24105352800689) rotate(0 15.86311752500842 2.9595368516806957)"><path d="M0 0 C1.18 0.87, 3.55 4.22, 7.1 5.21 C10.65 6.2, 17.2 6.59, 21.31 5.92 C25.41 5.25, 29.99 1.97, 31.73 1.18 M0 0 C1.18 0.87, 3.55 4.22, 7.1 5.21 C10.65 6.2, 17.2 6.59, 21.31 5.92 C25.41 5.25, 29.99 1.97, 31.73 1.18" stroke="#343a40" stroke-width="2" fill="none"></path></g></g><mask></mask><g stroke-linecap="round"><g transform="translate(47.67689371909917 56.95134237241018) rotate(0 16.810169317546297 8.28670318470597)"><path d="M0 0 C0.47 1.3, 0.87 5.25, 2.84 7.81 C4.81 10.38, 8.64 13.93, 11.84 15.39 C15.03 16.85, 18.86 17.4, 22.02 16.57 C25.18 15.74, 28.85 13.06, 30.78 10.42 C32.71 7.77, 33.15 2.33, 33.62 0.71 M0 0 C0.47 1.3, 0.87 5.25, 2.84 7.81 C4.81 10.38, 8.64 13.93, 11.84 15.39 C15.03 16.85, 18.86 17.4, 22.02 16.57 C25.18 15.74, 28.85 13.06, 30.78 10.42 C32.71 7.77, 33.15 2.33, 33.62 0.71" stroke="#343a40" stroke-width="2" fill="none"></path></g></g><mask></mask><g stroke-linecap="round"><g transform="translate(281.31322434577584 68.32016697868244) rotate(355.3331416285636 -13.55997944929527 0.465578693537509)"><path d="M0 0 C-1.2 1.13, -4.46 5.53, -7.22 6.75 C-9.97 7.97, -13.64 8.15, -16.53 7.33 C-19.42 6.52, -22.79 4.15, -24.56 1.86 C-26.32 -0.43, -26.69 -5.02, -27.12 -6.4 M0 0 C-1.2 1.13, -4.46 5.53, -7.22 6.75 C-9.97 7.97, -13.64 8.15, -16.53 7.33 C-19.42 6.52, -22.79 4.15, -24.56 1.86 C-26.32 -0.43, -26.69 -5.02, -27.12 -6.4" stroke="#343a40" stroke-width="2" fill="none"></path></g></g><mask></mask><g transform="translate(282.8353422377091 56.8058153960103) rotate(0 0.00005000000000165983 0.00005000000000165983)" stroke="none"><path fill="#343a40" d="M 1.57,-1.57 Q 1.57,-1.57 1.77,-1.27 1.98,-0.98 2.09,-0.64 2.20,-0.29 2.19,0.05 2.18,0.41 2.05,0.75 1.93,1.09 1.70,1.37 1.48,1.65 1.18,1.84 0.87,2.04 0.52,2.12 0.18,2.21 -0.17,2.18 -0.53,2.15 -0.86,2.01 -1.19,1.87 -1.46,1.63 -1.73,1.39 -1.90,1.07 -2.08,0.76 -2.15,0.41 -2.21,0.05 -2.17,-0.29 -2.12,-0.65 -1.96,-0.97 -1.80,-1.29 -1.54,-1.54 -1.29,-1.80 -0.97,-1.96 -0.65,-2.12 -0.29,-2.17 0.06,-2.21 0.41,-2.15 0.76,-2.08 1.07,-1.90 1.39,-1.73 1.63,-1.46 1.87,-1.19 2.01,-0.86 2.15,-0.53 2.18,-0.17 2.21,0.18 2.12,0.52 2.03,0.87 1.84,1.18 1.65,1.48 1.37,1.70 1.09,1.93 0.75,2.05 0.41,2.18 0.05,2.19 -0.30,2.20 -0.64,2.09 -0.98,1.98 -1.27,1.77 -1.57,1.56 -1.57,1.57 -1.57,1.57 -1.73,1.35 -1.90,1.14 -2.01,0.90 -2.12,0.66 -2.16,0.39 -2.21,0.13 -2.20,-0.13 -2.18,-0.40 -2.10,-0.65 -2.02,-0.91 -1.88,-1.14 -1.74,-1.36 -1.55,-1.55 -1.36,-1.74 -1.14,-1.88 -0.91,-2.02 -0.65,-2.10 -0.40,-2.18 -0.13,-2.20 0.13,-2.21 0.39,-2.16 0.66,-2.12 0.90,-2.01 1.14,-1.90 1.35,-1.73 1.57,-1.57 1.57,-1.57 L 1.57,-1.57 Z"></path></g><g transform="translate(256.7861060470619 50.756466707186746) rotate(0 0.00005000000000165983 0.00005000000000165983)" stroke="none"><path fill="#343a40" d="M 1.57,-1.57 Q 1.57,-1.57 1.77,-1.27 1.98,-0.98 2.09,-0.64 2.20,-0.29 2.19,0.05 2.18,0.41 2.05,0.75 1.93,1.09 1.70,1.37 1.48,1.65 1.18,1.84 0.87,2.04 0.52,2.12 0.18,2.21 -0.17,2.18 -0.53,2.15 -0.86,2.01 -1.19,1.87 -1.46,1.63 -1.73,1.39 -1.90,1.07 -2.08,0.76 -2.15,0.41 -2.21,0.05 -2.17,-0.29 -2.12,-0.65 -1.96,-0.97 -1.80,-1.29 -1.54,-1.54 -1.29,-1.80 -0.97,-1.96 -0.65,-2.12 -0.29,-2.17 0.06,-2.21 0.41,-2.15 0.76,-2.08 1.07,-1.90 1.39,-1.73 1.63,-1.46 1.87,-1.19 2.01,-0.86 2.15,-0.53 2.18,-0.17 2.21,0.18 2.12,0.52 2.03,0.87 1.84,1.18 1.65,1.48 1.37,1.70 1.09,1.93 0.75,2.05 0.41,2.18 0.05,2.19 -0.30,2.20 -0.64,2.09 -0.98,1.98 -1.27,1.77 -1.57,1.56 -1.57,1.57 -1.57,1.57 -1.73,1.35 -1.90,1.14 -2.01,0.90 -2.12,0.66 -2.16,0.39 -2.21,0.13 -2.20,-0.13 -2.18,-0.40 -2.10,-0.65 -2.02,-0.91 -1.88,-1.14 -1.74,-1.36 -1.55,-1.55 -1.36,-1.74 -1.14,-1.88 -0.91,-2.02 -0.65,-2.10 -0.40,-2.18 -0.13,-2.20 0.13,-2.21 0.39,-2.16 0.66,-2.12 0.90,-2.01 1.14,-1.90 1.35,-1.73 1.57,-1.57 1.57,-1.57 L 1.57,-1.57 Z"></path></g><g stroke-linecap="round"><g transform="translate(69.42178897085076 225.11813049015086) rotate(13.495733280795625 5.289363069805631 -0.7604392795009289)"><path d="M0 0 C1.4 -0.54, 6.59 -3.17, 8.41 -3.23 C10.22 -3.29, 11.07 -1.15, 10.87 -0.37 C10.68 0.41, 9.1 1.1, 7.24 1.45 C5.38 1.79, 0.96 1.66, -0.29 1.71 M0 0 C1.4 -0.54, 6.59 -3.17, 8.41 -3.23 C10.22 -3.29, 11.07 -1.15, 10.87 -0.37 C10.68 0.41, 9.1 1.1, 7.24 1.45 C5.38 1.79, 0.96 1.66, -0.29 1.71" stroke="#343a40" stroke-width="2" fill="none"></path></g></g><mask></mask><g stroke-linecap="round"><g transform="translate(34.02326436933714 225.47060096711607) rotate(25.709953780805996 4.851262951776562 -0.8739161513170757)"><path d="M0 0 C1.33 -0.56, 6.23 -3.26, 7.97 -3.34 C9.71 -3.42, 10.63 -1.26, 10.43 -0.48 C10.24 0.29, 8.66 0.99, 6.8 1.33 C4.94 1.68, 0.52 1.55, -0.73 1.59 M0 0 C1.33 -0.56, 6.23 -3.26, 7.97 -3.34 C9.71 -3.42, 10.63 -1.26, 10.43 -0.48 C10.24 0.29, 8.66 0.99, 6.8 1.33 C4.94 1.68, 0.52 1.55, -0.73 1.59" stroke="#343a40" stroke-width="2" fill="none"></path></g></g><mask></mask><g stroke-linecap="round"><g transform="translate(295.18772227656615 228.55552430087891) rotate(340.86635679409864 -4.914283590698005 -0.930705328609406)"><path d="M0 0 C-1.34 -0.57, -6.28 -3.31, -8.03 -3.4 C-9.78 -3.49, -10.69 -1.32, -10.5 -0.54 C-10.3 0.24, -8.72 0.93, -6.86 1.28 C-5 1.62, -0.59 1.49, 0.67 1.54 M0 0 C-1.34 -0.57, -6.28 -3.31, -8.03 -3.4 C-9.78 -3.49, -10.69 -1.32, -10.5 -0.54 C-10.3 0.24, -8.72 0.93, -6.86 1.28 C-5 1.62, -0.59 1.49, 0.67 1.54" stroke="#343a40" stroke-width="2" fill="none"></path></g></g><mask></mask><g stroke-linecap="round"><g transform="translate(258.94097638859563 228.64933229792337) rotate(340.86635679409864 -4.561485456841638 -0.5183525181633968)"><path d="M0 0 C-1.23 -0.5, -5.76 -2.96, -7.4 -2.99 C-9.05 -3.01, -10.06 -0.91, -9.87 -0.13 C-9.67 0.65, -8 1.34, -6.23 1.69 C-4.46 2.03, -0.42 1.91, 0.75 1.95 M0 0 C-1.23 -0.5, -5.76 -2.96, -7.4 -2.99 C-9.05 -3.01, -10.06 -0.91, -9.87 -0.13 C-9.67 0.65, -8 1.34, -6.23 1.69 C-4.46 2.03, -0.42 1.91, 0.75 1.95" stroke="#343a40" stroke-width="2" fill="none"></path></g></g><mask></mask><g stroke-linecap="round"><g transform="translate(35.23992937002873 185.83288409829606) rotate(0 -1.1992125552280868 19.027505876286796)"><path d="M0 0 C-0.08 3.28, -0.08 13.32, -0.48 19.67 C-0.88 26.01, -2.08 34.99, -2.4 38.06 M0 0 C-0.08 3.28, -0.08 13.32, -0.48 19.67 C-0.88 26.01, -2.08 34.99, -2.4 38.06" stroke="#343a40" stroke-width="2" fill="none"></path></g></g><mask></mask><g stroke-linecap="round"><g transform="translate(71.53609604160108 186.9521491498424) rotate(0 -1.5190025699557737 19.187400883650525)"><path d="M0 0 C0.05 2.96, 0.88 11.35, 0.32 17.75 C-0.24 24.14, -2.74 34.94, -3.36 38.37 M0 0 C0.05 2.96, 0.88 11.35, 0.32 17.75 C-0.24 24.14, -2.74 34.94, -3.36 38.37" stroke="#343a40" stroke-width="2" fill="none"></path></g></g><mask></mask><g stroke-linecap="round"><g transform="translate(257.97367462773906 190.15004929711745) rotate(0 0.5596325257731678 19.26734838733239)"><path d="M0 0 C-0.24 2.56, -1.87 8.93, -1.44 15.35 C-1.01 21.77, 1.89 34.67, 2.56 38.53 M0 0 C-0.24 2.56, -1.87 8.93, -1.44 15.35 C-1.01 21.77, 1.89 34.67, 2.56 38.53" stroke="#343a40" stroke-width="2" fill="none"></path></g></g><mask></mask><g stroke-linecap="round"><g transform="translate(293.6302612698565 190.4698393118449) rotate(0 1.439055066273795 18.707715861559336)"><path d="M0 0 C0.11 3.17, 0.16 12.79, 0.64 19.03 C1.12 25.26, 2.51 34.35, 2.88 37.42 M0 0 C0.11 3.17, 0.16 12.79, 0.64 19.03 C1.12 25.26, 2.51 34.35, 2.88 37.42" stroke="#343a40" stroke-width="2" fill="none"></path></g></g><mask></mask><g stroke-linecap="round"><g transform="translate(114.40259695866378 70.1954179749846) rotate(0 -3.9904895392489834 8.34375085479337)"><path d="M0 0 C-0.3 1.63, -0.48 7.01, -1.81 9.79 C-3.14 12.58, -6.95 15.54, -7.98 16.69 M0 0 C-0.3 1.63, -0.48 7.01, -1.81 9.79 C-3.14 12.58, -6.95 15.54, -7.98 16.69" stroke="#343a40" stroke-width="2" fill="none"></path></g></g><mask></mask><g stroke-linecap="round"><g transform="translate(212.5323624465596 67.2932437646216) rotate(0 7.799593190350151 -1.2697012170336848)"><path d="M0 0 C2.6 -0.42, 13 -2.12, 15.6 -2.54 M0 0 C2.6 -0.42, 13 -2.12, 15.6 -2.54" stroke="#343a40" stroke-width="2" fill="none"></path></g></g><mask></mask><g stroke-linecap="round"><g transform="translate(208.17910113101522 50.06158439059186) rotate(0 8.43444379886705 -1.81385888147679)"><path d="M0 0 C2.81 -0.6, 14.06 -3.02, 16.87 -3.63 M0 0 C2.81 -0.6, 14.06 -3.02, 16.87 -3.63" stroke="#343a40" stroke-width="2" fill="none"></path></g></g><mask></mask><g stroke-linecap="round"><g transform="translate(207.9977152428674 50.968513831330256) rotate(0 1.632472993329202 8.615829687014866)"><path d="M0 0 C-0.18 1.06, -1.18 4.32, -1.09 6.35 C-1 8.37, -0.36 10.34, 0.54 12.15 C1.45 13.97, 3.72 16.39, 4.35 17.23 M0 0 C-0.18 1.06, -1.18 4.32, -1.09 6.35 C-1 8.37, -0.36 10.34, 0.54 12.15 C1.45 13.97, 3.72 16.39, 4.35 17.23" stroke="#343a40" stroke-width="2" fill="none"></path></g></g><mask></mask><g stroke-linecap="round" transform="translate(90.57661003115261 62.469610263643744) rotate(24.443954780416895 2.7852239023800394 9.086201872448669)"><path d="M5.57 9.09 C5.57 9.61, 5.56 10.15, 5.53 10.66 C5.5 11.18, 5.46 11.7, 5.4 12.19 C5.35 12.69, 5.28 13.17, 5.2 13.63 C5.12 14.08, 5.02 14.52, 4.92 14.93 C4.82 15.33, 4.7 15.71, 4.58 16.05 C4.45 16.38, 4.32 16.69, 4.18 16.96 C4.04 17.22, 3.89 17.44, 3.74 17.62 C3.59 17.8, 3.43 17.94, 3.27 18.03 C3.11 18.13, 2.95 18.17, 2.79 18.17 C2.62 18.17, 2.46 18.13, 2.3 18.03 C2.14 17.94, 1.98 17.8, 1.83 17.62 C1.68 17.44, 1.53 17.22, 1.39 16.96 C1.25 16.69, 1.12 16.38, 0.99 16.05 C0.87 15.71, 0.76 15.33, 0.65 14.93 C0.55 14.52, 0.45 14.08, 0.37 13.63 C0.29 13.17, 0.22 12.69, 0.17 12.19 C0.11 11.7, 0.07 11.18, 0.04 10.66 C0.01 10.15, 0 9.61, 0 9.09 C0 8.56, 0.01 8.03, 0.04 7.51 C0.07 6.99, 0.11 6.47, 0.17 5.98 C0.22 5.48, 0.29 5, 0.37 4.54 C0.45 4.09, 0.55 3.65, 0.65 3.25 C0.76 2.84, 0.87 2.46, 0.99 2.13 C1.12 1.79, 1.25 1.48, 1.39 1.22 C1.53 0.95, 1.68 0.73, 1.83 0.55 C1.98 0.37, 2.14 0.23, 2.3 0.14 C2.46 0.05, 2.62 0, 2.79 0 C2.95 0, 3.11 0.05, 3.27 0.14 C3.43 0.23, 3.59 0.37, 3.74 0.55 C3.89 0.73, 4.04 0.95, 4.18 1.22 C4.32 1.48, 4.45 1.79, 4.58 2.13 C4.7 2.46, 4.82 2.84, 4.92 3.25 C5.02 3.65, 5.12 4.09, 5.2 4.54 C5.28 5, 5.35 5.48, 5.4 5.98 C5.46 6.47, 5.5 6.99, 5.53 7.51 C5.56 8.03, 5.56 8.82, 5.57 9.09 C5.58 9.35, 5.58 8.82, 5.57 9.09" stroke="#343a40" stroke-width="2" fill="none"></path></g><g stroke-linecap="round" transform="translate(226.07186847747113 46.32626621850022) rotate(350.46676720997175 2.7852239023800394 9.086201872448669)"><path d="M5.57 9.09 C5.57 9.61, 5.56 10.15, 5.53 10.66 C5.5 11.18, 5.46 11.7, 5.4 12.19 C5.35 12.69, 5.28 13.17, 5.2 13.63 C5.12 14.08, 5.02 14.52, 4.92 14.93 C4.82 15.33, 4.7 15.71, 4.58 16.05 C4.45 16.38, 4.32 16.69, 4.18 16.96 C4.04 17.22, 3.89 17.44, 3.74 17.62 C3.59 17.8, 3.43 17.94, 3.27 18.03 C3.11 18.13, 2.95 18.17, 2.79 18.17 C2.62 18.17, 2.46 18.13, 2.3 18.03 C2.14 17.94, 1.98 17.8, 1.83 17.62 C1.68 17.44, 1.53 17.22, 1.39 16.96 C1.25 16.69, 1.12 16.38, 0.99 16.05 C0.87 15.71, 0.76 15.33, 0.65 14.93 C0.55 14.52, 0.45 14.08, 0.37 13.63 C0.29 13.17, 0.22 12.69, 0.17 12.19 C0.11 11.7, 0.07 11.18, 0.04 10.66 C0.01 10.15, 0 9.61, 0 9.09 C0 8.56, 0.01 8.03, 0.04 7.51 C0.07 6.99, 0.11 6.47, 0.17 5.98 C0.22 5.48, 0.29 5, 0.37 4.54 C0.45 4.09, 0.55 3.65, 0.65 3.25 C0.76 2.84, 0.87 2.46, 0.99 2.13 C1.12 1.79, 1.25 1.48, 1.39 1.22 C1.53 0.95, 1.68 0.73, 1.83 0.55 C1.98 0.37, 2.14 0.23, 2.3 0.14 C2.46 0.05, 2.62 0, 2.79 0 C2.95 0, 3.11 0.05, 3.27 0.14 C3.43 0.23, 3.59 0.37, 3.74 0.55 C3.89 0.73, 4.04 0.95, 4.18 1.22 C4.32 1.48, 4.45 1.79, 4.58 2.13 C4.7 2.46, 4.82 2.84, 4.92 3.25 C5.02 3.65, 5.12 4.09, 5.2 4.54 C5.28 5, 5.35 5.48, 5.4 5.98 C5.46 6.47, 5.5 6.99, 5.53 7.51 C5.56 8.03, 5.56 8.82, 5.57 9.09 C5.58 9.35, 5.58 8.82, 5.57 9.09" stroke="#343a40" stroke-width="2" fill="none"></path></g><g stroke-linecap="round"><g transform="translate(97.1709375846345 62.758596560929846) rotate(0 8.34375085479337 3.26494598665829)"><path d="M0 0 C2.78 1.09, 13.91 5.44, 16.69 6.53 M0 0 C2.78 1.09, 13.91 5.44, 16.69 6.53" stroke="#343a40" stroke-width="2" fill="none"></path></g></g><mask></mask><g stroke-linecap="round"><g transform="translate(91.18520327576114 80.35302771125498) rotate(0 7.527514358128656 2.9021742103628867)"><path d="M0 0 C2.51 0.97, 12.55 4.84, 15.06 5.8 M0 0 C2.51 0.97, 12.55 4.84, 15.06 5.8" stroke="#343a40" stroke-width="2" fill="none"></path></g></g><mask></mask><g stroke-linecap="round"><g transform="translate(113.85843929422124 79.08332649422118) rotate(0 45.52785792506825 22.673236018460102)"><path d="M0 0 C1.87 1.36, 7.16 4.05, 11.25 8.16 C15.33 12.27, 21.74 19.23, 24.49 24.67 C27.24 30.11, 27.81 35.67, 27.75 40.81 C27.69 45.95, 26.06 51.76, 24.12 55.5 C22.19 59.25, 19.32 61.79, 16.14 63.3 C12.97 64.82, 8.13 65.27, 5.08 64.57 C2.03 63.88, -0.88 61.85, -2.18 59.13 C-3.48 56.41, -3.51 52, -2.72 48.25 C-1.93 44.5, -0.3 40.18, 2.54 36.64 C5.38 33.1, 9.73 29.2, 14.33 27.03 C18.92 24.85, 25.27 23.73, 30.11 23.58 C34.95 23.43, 39.06 24.28, 43.35 26.12 C47.64 27.96, 51.54 32.08, 55.87 34.64 C60.19 37.21, 64.94 40.57, 69.29 41.54 C73.64 42.5, 78.48 42.38, 81.99 40.45 C85.49 38.51, 89.18 34.07, 90.33 29.93 C91.48 25.79, 90.24 19.8, 88.88 15.6 C87.52 11.4, 85.25 7.89, 82.17 4.72 C79.08 1.54, 75 -1.81, 70.38 -3.45 C65.75 -5.08, 58.41 -6.05, 54.42 -5.08 C50.43 -4.11, 47.67 -0.79, 46.43 2.36 C45.2 5.5, 45.38 10.94, 46.98 13.79 C48.58 16.63, 52.39 18.68, 56.05 19.41 C59.71 20.13, 65.66 19.92, 68.93 18.14 C72.19 16.35, 73.61 12.46, 75.64 8.71 C77.66 4.96, 79.11 -0.15, 81.08 -4.35 C83.04 -8.56, 85.31 -14.03, 87.43 -16.51 C89.54 -18.99, 92.72 -18.77, 93.78 -19.23 M0 0 C1.87 1.36, 7.16 4.05, 11.25 8.16 C15.33 12.27, 21.74 19.23, 24.49 24.67 C27.24 30.11, 27.81 35.67, 27.75 40.81 C27.69 45.95, 26.06 51.76, 24.12 55.5 C22.19 59.25, 19.32 61.79, 16.14 63.3 C12.97 64.82, 8.13 65.27, 5.08 64.57 C2.03 63.88, -0.88 61.85, -2.18 59.13 C-3.48 56.41, -3.51 52, -2.72 48.25 C-1.93 44.5, -0.3 40.18, 2.54 36.64 C5.38 33.1, 9.73 29.2, 14.33 27.03 C18.92 24.85, 25.27 23.73, 30.11 23.58 C34.95 23.43, 39.06 24.28, 43.35 26.12 C47.64 27.96, 51.54 32.08, 55.87 34.64 C60.19 37.21, 64.94 40.57, 69.29 41.54 C73.64 42.5, 78.48 42.38, 81.99 40.45 C85.49 38.51, 89.18 34.07, 90.33 29.93 C91.48 25.79, 90.24 19.8, 88.88 15.6 C87.52 11.4, 85.25 7.89, 82.17 4.72 C79.08 1.54, 75 -1.81, 70.38 -3.45 C65.75 -5.08, 58.41 -6.05, 54.42 -5.08 C50.43 -4.11, 47.67 -0.79, 46.43 2.36 C45.2 5.5, 45.38 10.94, 46.98 13.79 C48.58 16.63, 52.39 18.68, 56.05 19.41 C59.71 20.13, 65.66 19.92, 68.93 18.14 C72.19 16.35, 73.61 12.46, 75.64 8.71 C77.66 4.96, 79.11 -0.15, 81.08 -4.35 C83.04 -8.56, 85.31 -14.03, 87.43 -16.51 C89.54 -18.99, 92.72 -18.77, 93.78 -19.23" stroke="#343a40" stroke-width="2" fill="none"></path></g></g><mask></mask><g stroke-linecap="round"><g transform="translate(220.84541368535753 66.75949721459324) rotate(0 12.261985135784926 17.92136289076268)"><path d="M0 0 C0.04 2.32, -0.9 9.24, 0.24 13.91 C1.38 18.59, 4.24 24.41, 6.84 28.06 C9.43 31.72, 12.85 34.74, 15.8 35.84 C18.75 36.94, 23.07 34.86, 24.52 34.66 M0 0 C0.04 2.32, -0.9 9.24, 0.24 13.91 C1.38 18.59, 4.24 24.41, 6.84 28.06 C9.43 31.72, 12.85 34.74, 15.8 35.84 C18.75 36.94, 23.07 34.86, 24.52 34.66" stroke="#343a40" stroke-width="2" fill="none"></path></g></g><mask></mask><g stroke-linecap="round"><g transform="translate(251.9719913377349 86.80312676347262) rotate(0 26.174622116772063 51.64182201417168)"><path d="M0 0 C-1.26 3.1, -5.34 11.91, -7.55 18.63 C-9.75 25.35, -11.75 32.97, -13.21 40.32 C-14.66 47.67, -15.76 55.77, -16.27 62.72 C-16.78 69.68, -16.55 76.76, -16.27 82.06 C-16 87.37, -17.33 91.45, -14.62 94.56 C-11.91 97.66, -6.05 99.24, 0 100.69 C6.05 102.14, 14.7 103.28, 21.69 103.28 C28.69 103.28, 35.57 101.99, 41.97 100.69 C48.38 99.39, 55.93 97.51, 60.13 95.5 C64.34 93.5, 65.79 94.21, 67.21 88.66 C68.62 83.12, 69.41 71.29, 68.62 62.25 C67.83 53.21, 64.73 42.25, 62.49 34.43 C60.25 26.61, 57.65 20.99, 55.18 15.33 C52.7 9.67, 48.89 2.95, 47.63 0.47 M0 0 C-1.26 3.1, -5.34 11.91, -7.55 18.63 C-9.75 25.35, -11.75 32.97, -13.21 40.32 C-14.66 47.67, -15.76 55.77, -16.27 62.72 C-16.78 69.68, -16.55 76.76, -16.27 82.06 C-16 87.37, -17.33 91.45, -14.62 94.56 C-11.91 97.66, -6.05 99.24, 0 100.69 C6.05 102.14, 14.7 103.28, 21.69 103.28 C28.69 103.28, 35.57 101.99, 41.97 100.69 C48.38 99.39, 55.93 97.51, 60.13 95.5 C64.34 93.5, 65.79 94.21, 67.21 88.66 C68.62 83.12, 69.41 71.29, 68.62 62.25 C67.83 53.21, 64.73 42.25, 62.49 34.43 C60.25 26.61, 57.65 20.99, 55.18 15.33 C52.7 9.67, 48.89 2.95, 47.63 0.47" stroke="#343a40" stroke-width="2" fill="none"></path></g></g><mask></mask><g stroke-linecap="round"><g transform="translate(302.43477631961974 92.46250451845026) rotate(0 15.327481419731157 24.40606656834143)"><path d="M0 0 C2.75 1.45, 11.71 5.38, 16.51 8.72 C21.3 12.07, 26.41 16.27, 28.77 20.04 C31.13 23.82, 31.13 27.75, 30.65 31.36 C30.18 34.98, 27.98 38.83, 25.94 41.74 C23.9 44.65, 19.65 47.63, 18.39 48.81 M0 0 C2.75 1.45, 11.71 5.38, 16.51 8.72 C21.3 12.07, 26.41 16.27, 28.77 20.04 C31.13 23.82, 31.13 27.75, 30.65 31.36 C30.18 34.98, 27.98 38.83, 25.94 41.74 C23.9 44.65, 19.65 47.63, 18.39 48.81" stroke="#343a40" stroke-width="2" fill="none"></path></g></g><mask></mask><g stroke-linecap="round"><g transform="translate(321.8960031527527 142.55353857262344) rotate(0 1.5901751792164305 5.764385024659873)"><path d="M0 0 C0.57 1.33, 3.49 6.03, 3.45 7.95 C3.4 9.87, 0.35 10.93, -0.27 11.53 M0 0 C0.57 1.33, 3.49 6.03, 3.45 7.95 C3.4 9.87, 0.35 10.93, -0.27 11.53" stroke="#343a40" stroke-width="2" fill="none"></path></g></g><mask></mask><g stroke-linecap="round"><g transform="translate(212.44400250160794 47.860602854703075) rotate(0 5.671507453130289 -1.923380788452846)"><path d="M0 0 C0.77 -0.64, 2.75 -3.49, 4.64 -3.85 C6.53 -4.21, 10.23 -2.45, 11.34 -2.17 M0 0 C0.77 -0.64, 2.75 -3.49, 4.64 -3.85 C6.53 -4.21, 10.23 -2.45, 11.34 -2.17" stroke="#343a40" stroke-width="2" fill="none"></path></g></g><mask></mask><g stroke-linecap="round" transform="translate(96.85701721429821 71.04839354753199) rotate(29.13429219722619 2.278856117181931 5.781977986039578)"><path d="M4.56 5.78 C4.56 6.12, 4.55 6.46, 4.52 6.79 C4.5 7.12, 4.47 7.45, 4.42 7.76 C4.38 8.07, 4.32 8.38, 4.25 8.67 C4.19 8.96, 4.11 9.24, 4.02 9.5 C3.94 9.75, 3.84 10, 3.74 10.21 C3.64 10.43, 3.53 10.62, 3.42 10.79 C3.3 10.96, 3.18 11.1, 3.06 11.22 C2.93 11.33, 2.8 11.42, 2.67 11.48 C2.54 11.53, 2.41 11.56, 2.28 11.56 C2.15 11.56, 2.01 11.53, 1.88 11.48 C1.75 11.42, 1.62 11.33, 1.5 11.22 C1.38 11.1, 1.25 10.96, 1.14 10.79 C1.03 10.62, 0.92 10.43, 0.81 10.21 C0.71 10, 0.62 9.75, 0.53 9.5 C0.45 9.24, 0.37 8.96, 0.31 8.67 C0.24 8.38, 0.18 8.07, 0.14 7.76 C0.09 7.45, 0.06 7.12, 0.03 6.79 C0.01 6.46, 0 6.12, 0 5.78 C0 5.45, 0.01 5.11, 0.03 4.78 C0.06 4.45, 0.09 4.12, 0.14 3.8 C0.18 3.49, 0.24 3.18, 0.31 2.89 C0.37 2.6, 0.45 2.32, 0.53 2.07 C0.62 1.81, 0.71 1.57, 0.81 1.35 C0.92 1.14, 1.03 0.94, 1.14 0.77 C1.25 0.61, 1.38 0.46, 1.5 0.35 C1.62 0.23, 1.75 0.15, 1.88 0.09 C2.01 0.03, 2.15 0, 2.28 0 C2.41 0, 2.54 0.03, 2.67 0.09 C2.8 0.15, 2.93 0.23, 3.06 0.35 C3.18 0.46, 3.3 0.61, 3.42 0.77 C3.53 0.94, 3.64 1.14, 3.74 1.35 C3.84 1.57, 3.94 1.81, 4.02 2.07 C4.11 2.32, 4.19 2.6, 4.25 2.89 C4.32 3.18, 4.38 3.49, 4.42 3.8 C4.47 4.12, 4.5 4.45, 4.52 4.78 C4.55 5.11, 4.55 5.61, 4.56 5.78 C4.56 5.95, 4.56 5.61, 4.56 5.78" stroke="#343a40" stroke-width="2" fill="none"></path></g><g transform="translate(48.703471872977914 45.81023910254203) rotate(0 0.00005000000000165983 0.00005000000000165983)" stroke="none"><path fill="#343a40" d="M 1.57,-1.57 Q 1.57,-1.57 1.77,-1.27 1.98,-0.98 2.09,-0.64 2.20,-0.29 2.19,0.05 2.18,0.41 2.05,0.75 1.93,1.09 1.70,1.37 1.48,1.65 1.18,1.84 0.87,2.04 0.52,2.12 0.18,2.21 -0.17,2.18 -0.53,2.15 -0.86,2.01 -1.19,1.87 -1.46,1.63 -1.73,1.39 -1.90,1.07 -2.08,0.76 -2.15,0.41 -2.21,0.05 -2.17,-0.29 -2.12,-0.65 -1.96,-0.97 -1.80,-1.29 -1.54,-1.54 -1.29,-1.80 -0.97,-1.96 -0.65,-2.12 -0.29,-2.17 0.06,-2.21 0.41,-2.15 0.76,-2.08 1.07,-1.90 1.39,-1.73 1.63,-1.46 1.87,-1.19 2.01,-0.86 2.15,-0.53 2.18,-0.17 2.21,0.18 2.12,0.52 2.03,0.87 1.84,1.18 1.65,1.48 1.37,1.70 1.09,1.93 0.75,2.05 0.41,2.18 0.05,2.19 -0.30,2.20 -0.64,2.09 -0.98,1.98 -1.27,1.77 -1.57,1.56 -1.57,1.57 -1.57,1.57 -1.73,1.35 -1.90,1.14 -2.01,0.90 -2.12,0.66 -2.16,0.39 -2.21,0.13 -2.20,-0.13 -2.18,-0.40 -2.10,-0.65 -2.02,-0.91 -1.88,-1.14 -1.74,-1.36 -1.55,-1.55 -1.36,-1.74 -1.14,-1.88 -0.91,-2.02 -0.65,-2.10 -0.40,-2.18 -0.13,-2.20 0.13,-2.21 0.39,-2.16 0.66,-2.12 0.90,-2.01 1.14,-1.90 1.35,-1.73 1.57,-1.57 1.57,-1.57 L 1.57,-1.57 Z"></path></g><g transform="translate(78.41333681062186 46.416562876779835) rotate(0 0.00005000000000165983 0.00005000000000165983)" stroke="none"><path fill="#343a40" d="M 1.57,-1.57 Q 1.57,-1.57 1.77,-1.27 1.98,-0.98 2.09,-0.64 2.20,-0.29 2.19,0.05 2.18,0.41 2.05,0.75 1.93,1.09 1.70,1.37 1.48,1.65 1.18,1.84 0.87,2.04 0.52,2.12 0.18,2.21 -0.17,2.18 -0.53,2.15 -0.86,2.01 -1.19,1.87 -1.46,1.63 -1.73,1.39 -1.90,1.07 -2.08,0.76 -2.15,0.41 -2.21,0.05 -2.17,-0.29 -2.12,-0.65 -1.96,-0.97 -1.80,-1.29 -1.54,-1.54 -1.29,-1.80 -0.97,-1.96 -0.65,-2.12 -0.29,-2.17 0.06,-2.21 0.41,-2.15 0.76,-2.08 1.07,-1.90 1.39,-1.73 1.63,-1.46 1.87,-1.19 2.01,-0.86 2.15,-0.53 2.18,-0.17 2.21,0.18 2.12,0.52 2.03,0.87 1.84,1.18 1.65,1.48 1.37,1.70 1.09,1.93 0.75,2.05 0.41,2.18 0.05,2.19 -0.30,2.20 -0.64,2.09 -0.98,1.98 -1.27,1.77 -1.57,1.56 -1.57,1.57 -1.57,1.57 -1.73,1.35 -1.90,1.14 -2.01,0.90 -2.12,0.66 -2.16,0.39 -2.21,0.13 -2.20,-0.13 -2.18,-0.40 -2.10,-0.65 -2.02,-0.91 -1.88,-1.14 -1.74,-1.36 -1.55,-1.55 -1.36,-1.74 -1.14,-1.88 -0.91,-2.02 -0.65,-2.10 -0.40,-2.18 -0.13,-2.20 0.13,-2.21 0.39,-2.16 0.66,-2.12 0.90,-2.01 1.14,-1.90 1.35,-1.73 1.57,-1.57 1.57,-1.57 L 1.57,-1.57 Z"></path></g></svg>